/* XPM */
static char *cd28ed3e15af4680e46ff68c10497d00CEj3oGG3P6fsEqmu[] = {
/* columns rows colors chars-per-pixel */
"64 64 163 2 ",
"   c None",
".  c #000000",
"X  c #0B0602",
"o  c #0C0B04",
"O  c #00070A",
"+  c #1B0D04",
"@  c #130A09",
"#  c #170B08",
"$  c #1E1C0B",
"%  c #000B10",
"&  c #04111E",
"*  c #251204",
"=  c #281D08",
"-  c #231C0A",
";  c #371C07",
":  c #2F1817",
">  c #291615",
",  c #301918",
"<  c #391F1C",
"1  c #3C1F15",
"2  c #26220E",
"3  c #28240F",
"4  c #35250B",
"5  c #282610",
"6  c #041424",
"7  c #001D2A",
"8  c #001B27",
"9  c #061E36",
"0  c #002738",
"q  c #00283A",
"w  c #582B17",
"e  c #602F0D",
"r  c #62300E",
"t  c #64321A",
"y  c #7B3B10",
"u  c #422421",
"i  c #532C29",
"p  c #6E3C39",
"a  c #723E39",
"s  c #703D37",
"d  c #4A461D",
"f  c #5F4313",
"g  c #7E5719",
"h  c #7D5217",
"j  c #504C20",
"k  c #7E4237",
"l  c #77403A",
"z  c #6D682B",
"x  c #726B2D",
"c  c #7B6E2D",
"v  c #79712F",
"b  c #003C56",
"n  c #0E3D6B",
"m  c #0F4172",
"M  c #8D4413",
"N  c #9D4B15",
"B  c #964914",
"V  c #81591A",
"C  c #8E5F1C",
"Z  c #B05518",
"A  c #8F651E",
"S  c #97671F",
"D  c #814120",
"F  c #884734",
"G  c #934C32",
"H  c #AC562E",
"J  c #B35A2E",
"K  c #BB5C2C",
"L  c #8F772C",
"P  c #827932",
"I  c #B47E25",
"U  c #B06733",
"Y  c #AF7136",
"T  c #CB6329",
"R  c #C46129",
"E  c #DC6A26",
"W  c #D76727",
"Q  c #C27832",
"!  c #E46F24",
"~  c #EE7222",
"^  c #E47C23",
"/  c #F57521",
"(  c #FC7722",
")  c #F77C23",
"_  c #FA7922",
"`  c #8E8538",
"'  c #868035",
"]  c #BD8628",
"[  c #A0933D",
"{  c #BEA13D",
"}  c #C18528",
"|  c #C48828",
" . c #DC972D",
".. c #ED882B",
"X. c #F88426",
"o. c #F88B27",
"O. c #FA8E2A",
"+. c #E29C2E",
"@. c #FA962C",
"#. c #FB992D",
"$. c #FAA12F",
"%. c #F7A12F",
"&. c #EFA832",
"*. c #FCA631",
"=. c #FEAE34",
"-. c #F6A832",
";. c #FFB436",
":. c #FEB438",
">. c #FEBA3E",
",. c #A39A40",
"<. c #AD9F43",
"1. c #B49F40",
"2. c #B4A746",
"3. c #BCAF49",
"4. c #BEB14A",
"5. c #CABE4F",
"6. c #D8C854",
"7. c #FEC344",
"8. c #FECD4C",
"9. c #FEC748",
"0. c #E3D458",
"q. c #FED452",
"w. c #FEDD59",
"e. c #F7DC5A",
"r. c #FDE45E",
"t. c #F6E15E",
"y. c #FDE761",
"u. c #FEE761",
"i. c #FEE660",
"p. c #FEE560",
"a. c #FCE560",
"s. c #FEE962",
"d. c #FEEA63",
"f. c #FFEF64",
"g. c #FFF667",
"h. c #114B85",
"j. c #124E89",
"k. c #11528E",
"l. c #0E5B98",
"z. c #0F5894",
"x. c #105591",
"c. c #0B6CA9",
"v. c #0B68A5",
"b. c #0975B3",
"n. c #038CCD",
"m. c #0288C7",
"M. c #0090CE",
"N. c #0193D5",
"B. c #0096DA",
"V. c #019ADC",
"C. c #07A6DF",
"Z. c #08A7DF",
"A. c #09A8DF",
"S. c #009EE0",
"D. c #0AABE1",
"F. c #0EB1E2",
"G. c #16BFE7",
"H. c #18C3E9",
"J. c #1ECEEC",
"K. c #22D4EE",
"L. c #27DEF2",
"P. c #2AE4F3",
"I. c #2CE8F5",
/* pixels */
"                  . . . . . . . . . . . . . . . . . . . . . . . . . . . . . . . . . . . . . . . . . . . . . . . .               ",
"                  . . . . . . . . . . . . . . . . . . . . . . . . . . . . . . . . . . . . . . . . . . . . . . . .               ",
"                  . . j ,.,.,.,.,.,.,.,.,.,.,.,.,.,.,.,.,.,.,.,.,.[ ,.,.,.[ ,.,.,.,.,.,.,.[ ,.,.,.[ ,.,.,.,.[ d .               ",
"          . . . . . . v a.a.a.a.a.a.a.y.a.a.a.a.a.r.a.a.a.a.a.a.a.a.a.a.a.a.a.a.a.a.a.r.a.a.a.a.a.a.a.a.r.y.y.x .               ",
"          . . o o o o P y.y.y.y.y.y.y.y.y.y.y.y.a.y.y.y.y.y.y.y.y.y.y.y.s.y.y.y.y.y.y.y.y.y.y.y.s.y.y.r.r.y.r.c o X . .         ",
"          . - 0.0.0.0.e.y.y.y.y.y.y.y.y.y.y.y.y.y.y.y.y.y.y.y.y.y.y.y.y.y.y.y.y.y.y.y.y.y.y.y.y.y.y.w.;.:.;.;.&.+.I . .         ",
"          . 2 y.s.s.y.y.y.y.y.y.y.y.y.y.y.y.y.y.y.y.y.y.y.y.y.y.y.y.y.y.y.y.y.y.y.y.y.y.y.y.y.y.y.y.w.*.=.=.=.=.=.| . .         ",
"          . 2 y.y.y.y.y.y.y.y.y.y.y.y.y.y.y.y.y.y.y.y.y.y.y.y.y.y.y.y.y.r.q.q.q.q.q.q.q.q.q.q.q.q.q.8.=.*.=.=.=.=.| . .         ",
"    O . . . 2 y.y.y.y.y.y.y.y.y.y.y.y.y.y.y.y.y.y.y.y.y.y.y.y.y.y.s.y.y.r.;.;.=.;.=.=.:.:.=.:.;.:.=.:.=.=.=.=.=.=.| . . . .     ",
"    X . . . $ a.y.y.y.y.y.y.y.y.y.y.y.y.y.y.y.y.y.y.y.r.s.s.s.s.s.s.s.s.r.=.=.=.=.=.=.=.=.=.=.*.=.=.=.=.=.=.;.=.;.| . . . .     ",
"    O . d [ <.a.y.y.y.y.y.y.y.y.y.y.y.y.y.y.y.y.y.y.s.w.7.7.9.7.7.7.7.9.7.*.=.=.=.=.=.=.=.=.=.=.=.=.=.=.=.O.O.o.o.^ N B o .     ",
"    O . z t.r.y.y.y.y.y.y.y.y.y.y.y.y.y.y.y.y.y.y.y.s.q.=.=.=.=.;.=.=.=.;.=.=.=.=.=.=.=.=.=.=.=.=.=.=.=.=.) / ) / / / ~ + .     ",
"    O . x s.y.y.y.y.y.y.y.y.y.y.y.y.y.y.y.y.y.y.y.y.y.q.=.=.=.=.*.=.=.=.=.=.=.=.=.=.=.=.=.=.=.=.=.=.=.=.=.) / / / / / / + .     ",
"    X . x y.y.y.y.y.y.y.y.y.y.y.y.y.y.y.y.y.y.y.y.y.y.q.=.=.=.=.;.=.=.=.=.=.=.=.=.=.=.=.=.=.:.=.=.=.=.=.=.) ( / / / / / + .     ",
"    O . x y.y.y.y.y.y.y.y.y.y.y.y.y.y.s.s.s.s.s.s.y.s.q.=.=.=.=.=.=.=.=.=.=.=.=.=.=.=.=.=.=.=.=.=.=.=.=.=.) / ( / ( / / + .     ",
"    O . x y.y.y.y.y.y.y.y.y.y.y.y.y.w.q.q.q.q.q.q.q.q.8.=.=.=.=.=.=.=.=.=.=.=.=.=.=.=.=.=.=.=.=.=.=.=.#.#.) ) / ( / / / + .     ",
"    X . x y.y.y.y.y.y.y.y.y.y.y.y.y.9.;.:.;.:.:.;.;.:.;.=.=.=.=.=.;.=.=.=.=.=.=.=.=.=.=.=.=.=.=.=.=.*.) ) / / / / / / / # . . . ",
"    O . x s.y.y.y.y.y.y.y.y.y.s.s.s.9.=.=.=.=.=.=.=.=.=.=.=.=.=.=.=.=.=.=.=.=.=.=.=.=.;.;.=.;.;.;.;.*./ / ( / ( _ ( / / @ . . . ",
". X . . x y.y.y.y.y.y.y.y.y.y.r.8.9.>.=.=.=.=.=.=.=.=.=.=.=.=.=.=.=.=.=.=.=.=.=.=.*.O.O.O.O.O.O.O.O.X./ / / / T H K ) / B M ; . ",
". . . . x y.y.y.y.y.y.y.y.y.y.s.:.=.=.=.=.=.=.=.=.=.=.=.=.=.=.=.=.=.=.=.=.=.=.;.=.@./ / / / / / / ( / / / / / J l G / ( ~ ~ e . ",
". . X O v y.y.y.y.y.y.y.y.r.r.r.;.=.=.=.=.=.=.=.=.=.=.=.=.=.=.=.=.=.*.=.=.=.=.*.=.@./ / ) / / / / / / / / ~ / H a G / / / / r . ",
". . ' 3.6.y.y.y.a.a.y.y.y.r.>.>.=.=.=.;.=.=.=.=.=.=.=.=.=.=.X.X.X.X.X.X.X.X.X.X.X.) / / ( ( / / R G G G G G F F a a G G G G 1 . ",
". . 6.g.g.f.f.f.f.f.f.f.f.r.;.=.;.;.;.;.;.;.;.;.;.;.;.;.;.;._ _ ( ( ( ( ( ( ( ( ( ( ( ( _ _ _ ( K a a p a a a a a a a p p p , . ",
". . P 2.2.2.2.2.2.2.2.2.2.{ I I I I I I I I I I I I I I I I Z Z Z Z Z Z Z Z Z Z Z Z Z Z Z Z Z Z D i i i i i i i i i i i i i > . ",
". . $ 5 5 5 5 5 5 5 5 5 5 5 = = = = = = = = = = = = = = = = * * * * * * * * * * * * * * * * * * + @ @ @ @ @ @ @ # @ @ @ @ @ X . ",
". . . . . . . . . . . . . . . . . . . . . . . . . . . . . . . . . . . . . . . . . . . . . . . . . . . . . . . . . . . . . . . . ",
". . f g g g g g g g g g V h y y y y y y y y y y y y y y y y y y y y y y y y y y y y y y y y y y y y y y y y y w < < < < < < # . ",
". . ] -.-.=.-.=.=.-.=.-.-.%.~ / ~ / / / ~ / / / ~ / / / / ~ / / / / / / / / / / / / / / / / / / / / ~ / / / / H a a a a a p , . ",
". . ] ;.;.=.=.=.;.=.=.;.=.$._ _ / ( ) ( ) ( ) ( / ( ) ( ( ) ) ( ) ( ) ) / ( ( ( ) ) _ ( ( ) ( ) / ( ) ( ( ( ) J a a a a a a , . ",
". . { q.7.=.=.=.=.=.=.=.;.*.#.#.#.#.#.#.#.#.#.#.#.#.#.#.#.#.#.#.#.#.#.#.#.#.#.#.#.#.#.#.#.#.#.#.#.#.#.#.#.#.#.U a a a a a a , . ",
". . 5.y.8.=.=.=.=.=.=.=.;.;.;.;.;.;.;.;.;.;.;.;.;.;.;.;.;.;.;.;.;.;.;.;.;.:.:.;.:.;.;.;.;.;.;.;.:.;.;.;.;.;.=.Y a a p p a a , . ",
". . 3.r.8.=.=.=.=.=.=.+.} } } } } } | } ] | | ] } } | ] | ] | } } | } ] | | ] | } ] | | ] | } ] | } | ] } -.=.Q G G G G a a , . ",
". . 3.a.8.=.=.=.=.=.;.S 4 4 4 4 4 4 4 4 4 4 4 4 4 4 4 4 4 4 4 4 4 4 4 4 4 4 4 4 4 4 4 4 4 4 4 4 4 4 4 4 4 +.=...E E E W l l , . ",
". . 3.a.8.=.=.=.=.=.=.g . . . . . . . . . . . . . . . . . . . . . . . . . . . . . . . . . . . . . . . . .  .=.O./ ( ( ( k l , . ",
". . 3.a.8.;.=.=.=.=.=.V . % b b b b b b b b b b b b b b b b b b b b b b b b b b b b b b 9 9 9 9 9 9 7 . .  .=.O./ / / ( k a , . ",
". . 5.y.8.=.=.=.=.=.=.V . 7 B.B.B.B.B.B.B.B.B.B.B.B.B.B.B.B.B.B.B.B.B.B.B.B.B.B.B.B.B.n.h.h.j.h.j.j.m . .  .=.O./ ( ( / k a , . ",
". . 5.a.8.=.=.=.=.=.=.V . 7 V.V.V.V.C.V.S.S.V.D.V.V.D.V.D.S.V.S.V.S.S.D.V.C.V.V.S.S.V.N.j.x.j.j.j.j.m . .  .=.O./ ( / / k a : . ",
". . 3.a.8.=.=.=.=.=.=.V . 7 V.B.G.H.H.H.J.J.H.H.H.H.H.H.H.H.H.H.H.H.H.J.H.H.H.H.H.D.V.B.b.b.z.j.j.j.m . .  .=.O.( / / / k l , . ",
". . 3.y.8.=.=.=.=.=.=.V . 7 V.B.I.I.I.I.I.I.I.I.I.I.I.I.I.I.I.I.I.I.I.I.I.I.I.I.I.J.B.B.S.S.l.h.h.j.m . .  .=.O./ ( / / k a , . ",
". . 5.y.8.;.=.=.=.=.=.V . 7 B.B.P.I.I.I.I.I.I.I.I.I.I.I.I.I.I.I.I.I.I.I.I.I.I.I.I.H.D.D.B.V.v.l.x.j.m . . +.=.O.) / / ) k a , . ",
". . 3.r.8.=.=.=.=.=.=.V . 7 B.B.L.I.I.I.I.I.I.I.I.I.I.I.I.P.I.I.I.I.I.I.I.P.I.I.I.L.K.J.B.B.n.m.c.j.m . .  .=.O./ / / / F a , . ",
". . 5.y.8.-.=.=.=.=.=.V . 7 V.V.L.I.I.I.I.I.I.I.I.I.I.I.I.I.I.I.I.I.I.I.I.I.I.I.I.I.I.P.B.B.V.V.b.j.m . .  .=.O./ / / ) l a , . ",
". . 4.y.8.=.=.=.=.=.=.V . 7 V.B.L.I.I.I.I.I.I.I.I.I.P.I.I.I.I.I.I.I.I.I.I.I.I.I.I.I.I.P.D.F.V.V.b.j.m . .  .=.O./ ( / / l a , . ",
". . 4.s.8.=.=.=.=.;.=.V . 7 V.B.L.I.I.I.I.I.I.I.I.I.I.I.I.I.I.I.I.I.I.I.I.I.I.I.I.I.I.I.I.I.D.B.b.j.m . .  .:.O./ / / ( F a , . ",
". . 3.y.8.=.=.=.=.=.=.V . 7 V.B.L.I.I.P.I.I.I.P.I.I.I.I.I.I.I.I.I.I.I.I.I.I.I.I.I.I.I.P.I.I.D.B.b.j.n . .  .=.O./ / / / l a , . ",
". . 3.a.8.;.=.=.=.=.=.V . 7 V.V.L.I.I.I.I.I.I.I.I.I.I.I.I.I.I.I.I.I.I.I.I.I.I.I.P.I.I.I.I.I.D.B.b.j.m . .  .=.O./ ) / / F a , . ",
". . 3.a.8.=.=.=.=.=.=.V . 7 B.B.L.I.I.I.I.I.I.I.I.I.P.I.I.I.P.I.I.I.I.I.I.I.I.I.I.I.I.I.I.I.D.B.b.j.m . .  .:.O.( / / / l a , . ",
". . 5.y.8.=.=.=.=.=.=.V . 7 V.B.L.I.I.I.I.I.I.I.I.I.I.I.I.I.I.I.I.I.I.I.I.I.I.I.I.I.I.I.L.L.D.B.b.k.m . .  .=.O./ / / / F a , . ",
". . 5.r.8.=.=.=.=.=.;.V . 7 V.B.L.I.I.I.I.I.I.I.I.I.I.I.I.I.I.I.I.I.I.I.I.I.I.I.I.I.P.P.D.D.B.V.b.j.n . .  .=.O./ / / ) F a , . ",
". . 3.a.8.=.=.=.=.=.=.V . 7 V.B.L.I.I.I.I.I.I.I.I.I.P.I.I.I.I.I.I.I.I.P.I.I.I.I.I.I.I.L.B.B.V.V.b.j.m . .  .=.O./ ) / / l l , . ",
". . 3.y.8.=.;.=.=.=.=.V . 7 V.B.L.I.I.I.I.I.P.I.I.I.I.I.I.I.I.I.I.I.I.I.I.I.I.I.I.P.L.K.V.B.n.n.c.j.m . .  .=.O./ / / / l a , . ",
". . 5.y.8.=.=.=.=.=.=.V . 7 B.B.L.I.I.I.I.I.I.I.I.I.I.I.I.I.I.I.I.I.I.I.I.I.I.I.I.H.B.B.V.V.l.h.j.j.m . .  .=.O.( / ( / F a , . ",
". . 3.r.8.-.=.=.=.=.=.V . 7 B.B.L.P.P.I.P.P.P.P.P.P.P.P.P.P.P.I.P.P.P.P.I.P.P.P.P.H.B.B.B.B.l.j.j.j.m . . +.=.O./ / / / l a , . ",
". . 5.y.8.=.=.=.=.=.=.V . 7 V.V.G.H.H.H.H.H.H.H.H.H.H.H.H.H.H.H.G.H.H.H.H.H.H.H.H.F.B.N.b.b.x.j.j.j.m . .  .=.@.) / / / F p , . ",
". . 4.y.8.=.=.=.=.=.=.V . 7 V.V.B.B.B.V.B.B.B.B.B.B.B.B.B.B.V.B.B.B.B.B.B.B.V.V.B.B.V.N.j.j.j.h.j.j.n . .  .=.O./ / / / l a , . ",
". . 4.s.8.=.=.=.;.=.=.V . 8 M.M.M.M.M.M.M.M.M.M.n.M.N.n.M.M.M.M.N.M.M.M.M.M.M.M.M.M.M.m.h.m h.h.h.h.n . .  .=.O.( / ~ ~ F a , . ",
". . 4.y.8.=.=.=.=.=.=.V . O q q q q q q q q q q q q q 0 q q q 0 0 0 q q q q q q q q q 0 6 6 6 6 6 6 & . .  .=.O./ ! G G a a , . ",
". . 4.y.8.=.=.=.=.=.=.V . . . . . . . . . . . . . . . . . . . . . . . . . . . . . . . . . . . . . . . . .  .=.O./ W p a a a , . ",
". . 4.y.8.=.=.=.=.=.=.A * - * * * * * * * * * * * * * * * * * * * * * * * * * * * * * * * * * * * * * * *  .*...! T a l a a , . ",
". . 4.s.8.=.=.=.=.=.=.=.;.*./ / / / / / / / / ) / / / ) / / / / / / / ) / ) / / / / / / / / / ) / / / / / / / H a a a a a a , . ",
". . 4.r.8.-.=.=.=.=.-.=.-.%./ / / / / / / / / / / / / ~ / / / / / / / / ~ / / / / / / / / / / / / / / ~ / / / H a a a a a a , . ",
". . z ` L A A A A A A A A A M M M M M M M M M M M M M M M M M M M M M M M M M M M M M M M M M M M M M M M M M t u u u u u u # . ",
". . . . . . . . . . . . . . . . . . . . . . . . . . . . . . . . . . . . . . . . . . . . . . . . . . . . . . . . . . . . . . . . ",
". . . . . . . . . . . . . . . . . . . . . . . . . . . . . . . . . . . . . . . . . . . . . . . . . . . . . . . . . . . . . . . . "
};
