/* XPM */
static char *d9ed422274064a8ac571ab334ec096586Lv6KJEu4OLuvzO2[] = {
/* columns rows colors chars-per-pixel */
"68 64 256 2 ",
"   c None",
".  c #060603",
"X  c #0A0904",
"o  c #080704",
"O  c #140C05",
"+  c #17170A",
"@  c #181A11",
"#  c #271A0A",
"$  c #371D0B",
"%  c #1F2114",
"&  c #37250C",
"*  c #2A2714",
"=  c #2F2613",
"-  c #482B0B",
";  c #5B250B",
":  c #4B340B",
">  c #54350C",
",  c #5C3C0B",
"<  c #58370B",
"1  c #492A13",
"2  c #463716",
"3  c #5B3D14",
"4  c #553815",
"5  c #582C12",
"6  c #643B0D",
"7  c #653B15",
"8  c #793A15",
"9  c #6A2B0E",
"0  c #5B2E15",
"q  c #4C4608",
"w  c #5B440C",
"e  c #534B0C",
"r  c #5C4B0C",
"t  c #574708",
"y  c #5C530B",
"u  c #595509",
"i  c #5C4313",
"p  c #5D4B13",
"a  c #584618",
"s  c #5D5114",
"d  c #4E4615",
"f  c #64430C",
"g  c #634A0D",
"h  c #6B4B0C",
"j  c #69460A",
"k  c #724E0D",
"l  c #77480C",
"z  c #64540C",
"x  c #6C530D",
"c  c #635A0C",
"v  c #6B5C0D",
"b  c #675A06",
"n  c #72540D",
"m  c #735B0D",
"M  c #7A590D",
"N  c #624315",
"B  c #6A4512",
"V  c #644C12",
"C  c #6C4C13",
"Z  c #644B1C",
"A  c #67491B",
"S  c #734C13",
"D  c #794918",
"F  c #645211",
"G  c #6B5312",
"H  c #6D5A12",
"J  c #685619",
"K  c #735412",
"L  c #7B5413",
"P  c #745A13",
"I  c #7B5A12",
"U  c #72551B",
"Y  c #785B1A",
"T  c #5D6308",
"R  c #6C630C",
"E  c #696609",
"W  c #72640B",
"Q  c #7B640D",
"!  c #746C0C",
"~  c #7C6B0B",
"^  c #756A05",
"/  c #7C740C",
"(  c #787708",
")  c #6D6512",
"_  c #726113",
"`  c #7C6313",
"'  c #7B641B",
"]  c #7A6A17",
"[  c #7D7616",
"{  c #6B730A",
"}  c #5C4F21",
"|  c #644B21",
" . c #684C24",
".. c #734D25",
"X. c #6B5425",
"o. c #6D5B24",
"O. c #6D5B2C",
"+. c #685427",
"@. c #735D24",
"#. c #745829",
"$. c #6E5A31",
"%. c #735933",
"&. c #776329",
"*. c #776536",
"=. c #7D7526",
"-. c #725B43",
";. c #7B764D",
":. c #893818",
">. c #963E1C",
",. c #835B0C",
"<. c #864618",
"1. c #835C14",
"2. c #865816",
"3. c #98551B",
"4. c #9A481C",
"5. c #83660D",
"6. c #846B0C",
"7. c #8B6C0E",
"8. c #8B620E",
"9. c #82730A",
"0. c #847A0B",
"q. c #8C7B0B",
"w. c #897709",
"e. c #917A0D",
"r. c #846413",
"t. c #8C6414",
"y. c #866B12",
"u. c #8B6C13",
"i. c #836B1A",
"p. c #88681A",
"a. c #926C14",
"s. c #95691B",
"d. c #837213",
"f. c #8B7513",
"g. c #847C14",
"h. c #8B7C13",
"j. c #8A761C",
"k. c #997C13",
"l. c #9B731C",
"z. c #957819",
"x. c #93660F",
"c. c #885828",
"v. c #975825",
"b. c #8E4B21",
"n. c #A85726",
"m. c #AA4F29",
"M. c #876827",
"N. c #986527",
"B. c #887625",
"V. c #967825",
"C. c #956E34",
"Z. c #A7692C",
"A. c #A57B28",
"S. c #AF6D33",
"D. c #A07F16",
"F. c #C55F3D",
"G. c #8B7452",
"H. c #B77647",
"J. c #B17149",
"K. c #997362",
"L. c #C8754C",
"P. c #7D810E",
"I. c #84840B",
"U. c #8A890C",
"Y. c #96870A",
"T. c #8B8315",
"R. c #8D8C13",
"E. c #888519",
"W. c #938315",
"Q. c #9A8414",
"!. c #928A13",
"~. c #9C8A14",
"^. c #9C851C",
"/. c #968B1D",
"(. c #8C9317",
"). c #989517",
"_. c #8A920C",
"`. c #A18C1C",
"'. c #A58919",
"]. c #A4931C",
"[. c #A89A1A",
"{. c #A7900D",
"}. c #9DA216",
"|. c #A6A919",
" X c #948423",
".X c #9B8B22",
"XX c #978828",
"oX c #9D9424",
"OX c #9A9829",
"+X c #968A34",
"@X c #9C9736",
"#X c #8C8630",
"$X c #A48928",
"%X c #A79727",
"&X c #B29C27",
"*X c #A48A37",
"=X c #A49C3D",
"-X c #A89837",
";X c #B49A37",
":X c #B58834",
">X c #9BA12E",
",X c #A6A529",
"<X c #B6A729",
"1X c #BAB22D",
"2X c #ABA434",
"3X c #A8A53A",
"4X c #B5A937",
"5X c #B8B635",
"6X c #ABB12F",
"7X c #C9B030",
"8X c #DAC735",
"9X c #979047",
"0X c #BB8545",
"qX c #A79B47",
"wX c #B49945",
"eX c #A69D54",
"rX c #B48C53",
"tX c #ADA543",
"yX c #ABA44B",
"uX c #AAA646",
"iX c #B4AB4B",
"pX c #B6A845",
"aX c #B6B248",
"sX c #ACA755",
"dX c #B3AB55",
"fX c #B9B758",
"gX c #ACB244",
"hX c #B38E6A",
"jX c #B4AD66",
"kX c #948B68",
"lX c #C98957",
"zX c #C7BA46",
"xX c #C5B956",
"cX c #C8AF4F",
"vX c #C6B761",
"bX c #C6C155",
"nX c #D6CB4C",
"mX c #E6D149",
"MX c #F1E859",
"NX c #DED264",
"BX c #D1C568",
"VX c #E6D779",
"CX c #E5D76B",
"ZX c #F6E879",
"AX c #F8F169",
"SX c #9A9E88",
"DX c #B0AD8F",
"FX c #C3BEAF",
"GX c #E9DE84",
"HX c #F6E88A",
"JX c #FCF597",
"KX c #F6EF90",
"LX c #F9F5B0",
"PX c #D4D1A3",
"IX c #FBFBD5",
"UX c #FCFDEA",
/* pixels */
"                                                          @X@X>X3X2X3XgXbX                                                              ",
"                                                  8X4XuX9X9XsXsXsX=.[ eXBXZXZXAX                                                        ",
"                                              NXzX4XuX9X+XyXdXsXsXqX=XuX4XzXxX7XnX1X                                                    ",
"                                            xX;X(.2XuXgXiXdXXXaXjXjXsXyX3X2X2XOX4X5X@X%X                                                ",
"                                        %X<XiX$XeXqXpXaXfX4X%XgXjXdXsXdXxXvXyX=.sXGXwX XnX                                              ",
"                                      ,X<X2X.X=X+X9.j.dXbXbXBXvXdXiXBXGXLXKXjXE B.BXGXaX@X,XmX                                          ",
"                                    ).&X-X+XW.3XyX+XXXdXeX*XjXjXV.oXVXKXBX7XvX+X9X+XVXGXfXj.4XmX                                        ",
"  6X                              [.&X;XpXpX4XaX%XpXiXeXd.d.jXjX.XpXHXJXVXnXBX@XXXXX+X;XOXB.h.CX                                        ",
"  k.6X                            [.<XwXpX4X4XcXW.-XpXdXqXuXdXxXBXVXGXKXJXLXLXBXoXXXB.[ ~ B.-XBX1X                                      ",
"a.2.>X_.                        [.&X&X4X7X<X7XzX2XtXiXiXyXiXtX3XiXxXNXZXJXLXUXIXGX3XXXOXtXXX X&X[.[                                     ",
"s.<.OX_._.                    ).[.&X&X&X&X7X4X3XwXqXyXyXyXuX=XqXqXqXiXVXJXLXUXUXUXIXGXxXpX/.E.h.h./ [                             P.    ",
"s.b.)._._.(.                  ].%X].{.].&X;X*X*X-XqXeXeXqXuX=X=X*X@X@XcXKXLXIXIXIXIXLXZX4XT.h.I.d.! h.                          |.: t   ",
"A.b./.P.P._.}.}.            Q.).'.^.`.%X&XOX-X-XqXqXeXqXyXiXtX=X@X@XuXxXHXJXJXKXAXAXMXnX,X/.!.E./ ! $X1X                      }.OX& f   ",
":XZ.( ^ ^ I.(.>X3X3X      ).~.~.~.`.[.&X%X%X,XuXyXyXyXyXaXiXqX=X=XtXbXNXAXAXMXAXAXAXNX6X,X,X).).I.! i.pX                  |.}.).(.- V ] ",
"&XZ.u u E ^ ( /.OXyXuX-X).~.~.~.~.].[.[.oX%X3XyXdXfXaXxXbXgX@X@X@X4XxXmXMXMXMXNXbXxXtXE.[ E.<XR.Y.[ W ;X%X              }.}.)._.E.2 U B.",
"'.Q t r g b W ~ g.+X-X$X'.^.Q.Q.~.)..XM.d } B.XX9XsX3XfXxXgXOXOXOX3X7XbX8XzX6X/.i.' a = = O.o.] ( 0.R V.7X9.        5X5X3XOX!.U._.4 ..B.",
"              n M f. X'.k.^.Q.Y.q.' a 2 @ * = = d J B.,X,XOX(.oXOX%X4X5X2X X` e * * % @ @ + @ * J g.! ] cX<X7XmXCXmXxX@XT.q.( ( ( H @..X",
"                V 8.l.D.k.Q.Q.Q.d.& * * * % % + + @ : ! R._.R.E.(.OX,X%X) & = + # & & * * @ @ @ d ) ~ H ;X7X7XmXHXcXu.Q W b b r e e ` d.",
"                  K a.k.^.Q.Q.e.a.G N k k L k 6 : # + & ) ( T.R.E.OXoXh.q X = > V h g V z a 2 + % a ! v &X7X7X8X8X'.M x r               ",
"                    u.k.^.Q.k.7.8.,.M k n I P K l h < & t ^ 0.E.E.R.W.Q r > < , , , , < w h g 4 d v H b D.{.D.7X7X,.>                   ",
"                    u.k.k.k.l.2.,.k j I j.M.' ' ` C h l M Q g.E.E.E.f.G , < w h ` r.' H r w r g g x z c f.W.5.[.{.q                     ",
"                    a.k.k.l.l.V.1.h n K &.kXK.*.A j V S L r.g.E.E.h.f.g , N P j.' G G m H H w h g g y c d.f.m '.y.                      ",
"                    a.k.k.l.s.s.l.B.S *.FXK.K.m.G.%.h U ,.r.B.#X#XE.z.G w G D 3 -.-.-.;.} w r g g g c v ! 9.J z.z                       ",
"                    e.k.'.$X%X*XV.r.8 DXFX:.$ 1 >.kXD Y I j.OXuX=X%X$Xz.g ..| SXK.9 9 kXSX2 r K f.r._ ) R / c H                         ",
"                    k.Q.'.$X%X$XXXz.l.rXDXv.8 <.v.M.c.' i.W.%X4X4X%X).&XP Y %.G.9 O ; %.SX-.V.V.M.B.j.] ( ! ) H                         ",
"                    Q.'.{.].%X;X*XV.l.a.k. XXXp.n P i.i.R.|.6X5X5X6X[.~..X` I V.s.P D C.eXA.$X$X;X-XXXg./ ! R )                         ",
"                  z.e.{.{.[.[.;X;X%X^.V.p.2.Y p.B.V. X).|.gXbXfXgX,XaX1X).z.i.r.Q Q 6./.%X/ i.%X&X-X%X!./ ( E !                         ",
"                  a.Y.Y.[.[.[.&X4XlXwX;X;XwX*XXXXX X[.|.6XgX3X3X-X}.6X6X|.T.f.j.d.m x x ` d.W./.]./.(.I.[ ( E !                         ",
"                  f.Y.Y.Y.}.,X<X4XwXyXwX*XV.a.^.].Y.}.,X,X>XOXOX)._.).(.(.I.h.W.f. XcX4X<X<X<X1X&X!.I.P.( { E E !                       ",
"                  e.q.q.Y.).[.}.%X%XXXV.r.k Q.%X%X!.!.!.!.R.R.U.P.P.U.I.! E ] h.h.f.z.-XpXaX3X2X,X(.P.P.{ { ( R ]                       ",
"                  e.9.9.0.U.Y.Y.!.T.i.M k ,.'.z.f.w.w.q.I.0.( ( / E ^ E c c _ [ h.h.m i.z..X).).!.R.I.( { E 0.E R                       ",
"                  e.6.6.~ 9.0.0.d.~ n B 6 h 2.l - - L 5.~ ~ ~ W W W v b z g x G _ / r x ` d.q.I.U._.U.{ { T 9.! W                       ",
"                  7.6.9.9.^ Q W m G f 6 > > S , & $ & g k k x x x x z V a : & - i z : , G P Q ^ q.U./ { { T E / R                       ",
"                f.w.6.6.6.6.Q h j f , < > Y 2., 7 #.#.+.6 < < 6 , < : 1 & # # & : r p : i x x m ^ ^ ^ E T u E 0.!                       ",
"                a.w.5.6.6.5.n 6 , 6 6 f 1.V.l.N.N.M.C.*.@.N > - - 1 > 4 a a a i a J H w > f V x b b b u T u b 9./                       ",
"                u.7.5.5.5.M k , j r.j.l.l.l.l.V.V.C.C.C.B.A A U C U U U J J J J U Y ' H w < 6 N h g b E u q u ~ w.                      ",
"                r.7.5.6.r.I k j e.'.V.$X`.^.^.V.V.XX+X+X#X) U J Y &.M.[ Y i.M.M.j.p.z.` x C , , N V F y u q t 9.{.                      ",
"                ` 6.5.6.r.t.K 5.a.M 1.k.$X/..X XXXOX+X@X#X) =.' &.M.B.B.] ] i.j.j.i.V.z._ P P f < 3 V y e e b e.{.                      ",
"                ' u.5.7.p.t.G r.: - k e.^..X/.oXoXOXOX@X@X[ B.i.B.XX#XE.[ [ ] i.] ] z.^.y.P 1.] F 3 N s e q E Y.{.                      ",
"                  5.5.u.p.t.P j.h V < t.k./..XoXOX>X>X3X>XE.E. X+X-X@XE.P.[ E.[ [ [ g.T.f.g n Q R r i r e u ( {.{.                      ",
"                  r.5.u.u.p.r.V.V.j.- & <.5.7.W./.oXoX.X XE./.-XqX-X/.P.g.g.[ [ [ [ ! d.~ : - n v z C y u E Y.{.Y.                      ",
"                  ` 7.7.p.p.p.V.+XA.9 o 6 :.9 l L l l l h h L r.y.M x x C C H P _ H J F & - < k g s V y u ^ Y.{.q.                      ",
"                  ` 5.6.u.p.u.V.*X$Xb.$ & v.<.n.8 8 8 9 8 9 9 ; ; 9 ; ; 9 5 ; 9 ; 3 # O $ A U I r z G b u w.{.Y.^                       ",
"                  ` 5.6.u.s.y.l.S.$XS.8 1 7 B c.n...n.:.S.Z.b.:.3.b.8 8 v.8 b...0 - o $ b.2.Y K r G b b u q.Y.q.                        ",
"                  I ~ y.u.u.u.8.$Xl.H.m.; c.3.7 # . O % c.Z.D 8 S.n.D $ 7 & b.# X O O :.n.G L C r J v u b Y.Y.(                         ",
"                    ` 5.u.a.a.,.l.a.S.S.4.D 3.c.$ . o o . . . o o O . . o o . O 1 $ :.n.2.g U V F H v c ^ Y.Y.b                         ",
"                    ` 5.u.f.s.5.x.a.3.0XJ.>.8 :Xv.& X O o o X X X X X X . o o 4 9 :.m.v.N g G G H _ v c 9.Y.q.u                         ",
"                    M Q 7.u.s.8.5.x.,.Z.lXL.m.3.3.lXC.1 O X X X X X X . O % 0 4.4.Z.Z.C t g G P _ _ c u ( Y./                           ",
"                    m ` 5.u.a.a.,.,.2.<.Z.0XlXS.m.n.n.3.H.H.c.4 ....7 c.Z.n.4.n.S.V.G w t g F H _ ) y c w.( r                           ",
"                      n r.r.u.a.8.,.2.,.L s.S.rXlXlXL.F.m.m.4.n.m.Z.4.m.n.S.S.Z.N.C t t i g G v H y u R ~ W                             ",
"                      n I r.t.u.a.1.L M l l <.3.Z.0XlXhXhXH.J.J.H.H.J.S.S.Z.v.D 7 w e i w p H z v y u m W v                             ",
"                        n 1.r.r.x.2.2.L n S G S S k 1.3.M.N.Z.Z.Z.C.s.2.<.7 N +.+.F p w i V G F c y u R z                               ",
"                        h n 2.r.1.2.2.2.K C U ..#. .U A 7 f 6 f B f N i } +.$.O.J p a i V F z c y e r z r                               ",
"                          k I 2.r.Y p.2.2.K C @.#.#.#.O.$.#.#.X.$. .+.$.*.$.$.+.} a i p F z c F r e u w                                 ",
"                          j S I 1.1.p.2.L L D C o.@.O.O.O.O.O.O.$.O.O.$.O.+.+.a a 3 i V s s s s e d r n                                 ",
"                            C K Y I I L L L S C B Z o.+.X.O.+.O.O.+.+.+.+.| a 4 3 i p V s u s s e p H                                   ",
"                              J K Y I I P L L n C B N N | | |  .| | | 4 4 4 3 i i i p g p y e d o.'                                     ",
"                                U K P L n P m K G C B B 7 Z i 3 3 4 3 3 3 7 3 N N N p d p p s &.&.                                      ",
"                                  @.U K K K P K n G V V N N 7 i 3 3 N 7 7 N N N a p p s s o.*.&.                                        ",
"                                    &.@.U P K H H G g V V a a 3 N N 3 A N N N N N a s J *.*.s                                           ",
"                                      @.O.&.@.Y K G F Z Z p Z | Z A N N B B N N p +.*.;.&.                                              ",
"                                        J O.&.#.&.@.o.o.o.+.+. . .X. . . .X.+.$.*.G.*.+.                                                ",
"                                            J J @.*.&.&.%.%.%.%.%.%.%.%.%.%.*.*.*.|                                                     ",
"                                                  i p a a | | 7  .|  .A X.A                                                             "
};
