/* XPM */
static char *_9cfaa8354354e7f85115287ef680ad8Kw2jjvNuizzqzJz7[] = {
/* columns rows colors chars-per-pixel */
"64 64 256 2 ",
"   c None",
".  c #060704",
"X  c #0A0904",
"o  c #090704",
"O  c #160D06",
"+  c #1B1609",
"@  c #171A11",
"#  c #23180A",
"$  c #31190A",
"%  c #29220C",
"&  c #37260C",
"*  c #282614",
"=  c #3B3213",
"-  c #1F200D",
";  c #472C0B",
":  c #5A260B",
">  c #4C390C",
",  c #553A0C",
"<  c #5C3C0C",
"1  c #55340B",
"2  c #4C2C12",
"3  c #473A16",
"4  c #5B3D15",
"5  c #543912",
"6  c #5C2911",
"7  c #64290D",
"8  c #613B0C",
"9  c #653916",
"0  c #783A15",
"q  c #6B2E12",
"w  c #582D18",
"e  c #5C440C",
"r  c #544B0C",
"t  c #5D4B0D",
"y  c #564909",
"u  c #5C530B",
"i  c #59560A",
"p  c #5C4413",
"a  c #5D4B13",
"s  c #584618",
"d  c #5C5113",
"f  c #4E4808",
"g  c #65440C",
"h  c #644B0D",
"j  c #6C4B0C",
"k  c #6A460A",
"l  c #754C0C",
"z  c #64540C",
"x  c #6C540D",
"c  c #645A0C",
"v  c #6B5C0C",
"b  c #665906",
"n  c #73530D",
"m  c #775A0D",
"M  c #634415",
"N  c #644B12",
"B  c #6C4D12",
"V  c #63491B",
"C  c #684619",
"Z  c #734D13",
"A  c #774617",
"S  c #645311",
"D  c #6C5412",
"F  c #6D5B12",
"G  c #6B541B",
"H  c #655717",
"J  c #745512",
"K  c #7C5513",
"L  c #735C14",
"P  c #7B5B13",
"I  c #72541B",
"U  c #775B1A",
"Y  c #5F620B",
"T  c #6D630C",
"R  c #6C6B0B",
"E  c #686607",
"W  c #73640C",
"Q  c #7C630E",
"!  c #746C0C",
"~  c #7B6C0B",
"^  c #756905",
"/  c #7D740C",
"(  c #787609",
")  c #6D6413",
"_  c #7C6213",
"`  c #796717",
"'  c #7D7415",
"]  c #7C7717",
"[  c #6B7409",
"{  c #644D22",
"}  c #684A24",
"|  c #6C5A23",
" . c #6A5429",
".. c #6C5B2C",
"X. c #675426",
"o. c #725D24",
"O. c #735827",
"+. c #6B5C34",
"@. c #735A32",
"#. c #714C25",
"$. c #776328",
"%. c #786737",
"&. c #6E602C",
"*. c #544D21",
"=. c #725A43",
"-. c #7A6E45",
";. c #8B3D19",
":. c #825A0C",
">. c #884B1A",
",. c #97481D",
"<. c #835C14",
"1. c #865618",
"2. c #99551D",
"3. c #A1521E",
"4. c #83650E",
"5. c #846B0C",
"6. c #8B690E",
"7. c #83740A",
"8. c #8B7C0B",
"9. c #87770A",
"0. c #927A0E",
"q. c #836413",
"w. c #8B6514",
"e. c #836B13",
"r. c #8B6B13",
"t. c #846B1A",
"y. c #8A6C1B",
"u. c #86641A",
"i. c #936B16",
"p. c #847413",
"a. c #8C7413",
"s. c #847D14",
"d. c #8B7C14",
"f. c #89781C",
"g. c #937513",
"h. c #937B15",
"j. c #9A7D14",
"k. c #94741D",
"l. c #9A781B",
"z. c #92650F",
"x. c #964C21",
"c. c #8B5926",
"v. c #945724",
"b. c #8C5130",
"n. c #A85726",
"m. c #AE542C",
"M. c #886625",
"N. c #986627",
"B. c #8A7624",
"V. c #967725",
"C. c #926F32",
"Z. c #A7682B",
"A. c #A57A29",
"S. c #AA6832",
"D. c #AC7536",
"F. c #B36C37",
"G. c #845841",
"H. c #86714B",
"J. c #B57648",
"K. c #B16D49",
"L. c #A57867",
"P. c #CC724C",
"I. c #7D820F",
"U. c #88860C",
"Y. c #94830A",
"T. c #98890A",
"R. c #8C8B14",
"E. c #898417",
"W. c #9B8413",
"Q. c #9C8B15",
"!. c #9C841C",
"~. c #958A18",
"^. c #9C9315",
"/. c #94931C",
"(. c #999518",
"). c #8D9311",
"_. c #A28E0C",
"`. c #A28C1C",
"'. c #A48A18",
"]. c #A7971A",
"[. c #AE9414",
"{. c #9CA115",
"}. c #A2A417",
"|. c #8E8824",
" X c #9C8C23",
".X c #968727",
"XX c #9C9324",
"oX c #9A9728",
"OX c #978B34",
"+X c #9B9635",
"@X c #8D8638",
"#X c #A58929",
"$X c #A49424",
"%X c #A49C2D",
"&X c #A99728",
"*X c #B29B27",
"=X c #A48736",
"-X c #A49C3D",
";X c #A79737",
":X c #B29939",
">X c #B38634",
",X c #9CA128",
"<X c #9DA135",
"1X c #A7A529",
"2X c #B5A72A",
"3X c #ACA43C",
"4X c #A8A637",
"5X c #B7A839",
"6X c #B8B435",
"7X c #B1B22C",
"8X c #C6AC2B",
"9X c #C5B637",
"0X c #C6AC37",
"qX c #DCC737",
"wX c #9A9247",
"eX c #A59D4B",
"rX c #A79A45",
"tX c #B49A46",
"yX c #AA9B54",
"uX c #BB844A",
"iX c #ACA443",
"pX c #ACA44B",
"aX c #AAA745",
"sX c #B2AB4B",
"dX c #B5A944",
"fX c #B7B449",
"gX c #ACA656",
"hX c #B4AB56",
"jX c #B8B557",
"kX c #ACB240",
"lX c #958A71",
"zX c #B79169",
"xX c #B6AF66",
"cX c #C68954",
"vX c #C6BC47",
"bX c #C7BA57",
"nX c #CAAE49",
"mX c #D4C558",
"MX c #D0CA4A",
"NX c #E4D756",
"BX c #F3EB59",
"VX c #D6CA67",
"CX c #C9C366",
"ZX c #E6D879",
"AX c #E3D669",
"SX c #F7EF6C",
"DX c #B19D86",
"FX c #C1BBAB",
"GX c #FCF699",
"HX c #F7ED8C",
"JX c #FAF7BA",
"KX c #EFEAA8",
"LX c #E2D98D",
"PX c #FBFCDB",
"IX c #FAF9C4",
"UX c #FBFDE8",
/* pixels */
"                                                      a C G V } } } } 9 { a a s p p                                             ",
"                                                V &.%.%.@.@.@.@.@.@.+.@.@.@.@.%.$.G G H                                         ",
"                                            V &.C.-.@. . .} } } }  .}  .X.| o.G $.$.$.o.|                                       ",
"                                          | %.%.+.V V C M C M V 9 V *.V V C H D G I ..o.o.o.o.                                  ",
"                                      a | %.&.{ d s M p M g C 9 9 V M p a N N N D D J J I o.o.o.                                ",
"                                    a &.&.X.a a a s p M M 9 4 9 4 4 4 M M N B z D n v J J J I o.o.                              ",
"                                  S o.&.d d a a p p M 9 9 4 4 4 4 4 4 M M M M B j J n K L K P I I                               ",
"                                  $.d r d d a t a p p 4 4 5 s V { { { { { C M M B J J m J P P U J G                             ",
"                                H a r a d u a a p p 5 s s X.X.X. . ...X. ...X.G C B Z K K <.P <.U J B                           ",
"                              n y p r d S d z M p s s {  .+.....+.......O. .| ..O.G Z Z 1.<.<.P <.U j g                         ",
"                              y u r d c z S N e s s X...&.%... .}  . . .@.@. .O.O.O.#.J K <.<.<.<.<.K k                         ",
"                            e z u r u u S S a p a { ..+. .} M g g k k g k C C I #.O.Z G J <.1.<.u.<.<.n j                       ",
"                          l z T u i z F S h p p a H { C A l 1.v.N.S.S.N.N.c.:.K Z B Z j Z l :.1.w.w.q.K n g                     ",
"                          v T W u d F z z a e e a p A c.v.S.F.J.J.J.J.J.L.zXzXcXD.N.1.n Z :.<.:.z.i.w.q.m n                     ",
"                        y b ^ b i c F v N t e y h <.N.S.S.m.m.x.n.m.n.,.m.m.P.P.cXcXD.Z.1.K :.:.z.i.w.q.Q J                     ",
"                        u 7.9.v i F F D x p e B u.D.m.3.3.Z.b.}  .#.} b.D.F.3.n.m.F.P.uXD.>.1.:.:.i.r.e.4._ m                   ",
"                        ! 8.9.b i W L F B e e <.n.n.3.9 $ O o o X X X X X $ } D.Z.2.3.K.cXZ.1.z.4.z.r.6.5.Q m                   ",
"                      u 7.Y./ b v ) F D D N I n.x.0 6 # o X . . X o o . X o o # C D.x.;.F.uXZ.i.z.4.i.r.w.Q Q                   ",
"                      b U.Y.^ b v F S B G A v.,.7 & # X . . . . O . . . . . . . + 9 1.1.;.F.D.i.l.:.i.g.5.e.Q                   ",
"                      ( Y.Y.^ i v D a B I K x.: O X # 9 2 9 & #.m.S.0 >.N.} # X + 2 >.2.q ,.F.l.A.w.r.r.r.e.4.m                 ",
"                    Y 9.T.Y.c c v S t K U 1.9 + # 2 A b.0 v.A 0 b.,.>.x.S.n.,.v.v.b.A 9 2 q S.A.=Xl.w.y.r.5.Q P                 ",
"                    ( Y._.8.i c S N z K A 4 $ # ; 6 6 7 6 7 7 : 7 : : 7 0 q q 0 0 x.2.x.2 $ >.#X=XV.w.u.r.5.4._                 ",
"                    8.T.T.7.i u N z z k ; ; ; h F F L L D j h x P q.<.n l k l l l l 0 0 q O 8 l.=XV.u.y.y.6.5._                 ",
"                    T._.Y.^ r u B S v j ; e e.~ ] ] ] ] s.s.U.|.;X;X%X.XE..X X$X(.~.a.6.:.; ; y.C.V.q.y.a.w.q.q.                ",
"                    _._.9.b y u p h T _ x m a.s.' ' ] p.] I.E.+X;XOX@XE.|.<X<X,XoX%X/.!.g.r.< g D y.P w.r.e.5.q.                ",
"                    _._.^ i f u p < F _ _ _ d.!.p.' ` ] t.] |.|.@XB.] f.|.+X+XoXXXXX$X X Xg.l ; 1 e.J u.w.6.5.e.`               ",
"                    [.Y.T y r d N p < N L L t.l.k.y.B.M.` ] B.B.M.M.` ` ] |.+XoX.X.X!.#X Xl.w.n 6.4.n w.q.6.5.6.U               ",
"                    _.9.i f i i N M p < < x L t.y.y.B.M.` $.` M.` o.I U $.@XOX@X.X.Xl.`.`..X#X'.g.h n P 4.4.5.5.q.              ",
"                    0.5.b f i E c z h g < < h L ` I G G G G G I G C C C G C.@XC.C.V.V.l.k.k.k.4.k < l m 4.5.5.6.r.              ",
"                    7.7.E i i Y b b x x N < < N G a p p s s 5 1 2 2 1 < V $.M.C.M.N.N.l.u.j < 8 < k n 4.5.5.5.6.a.              ",
"                    W / E i Y E ^ ^ ^ m n N , f a 5 ; % + % ; 1 < < 8 1 < 9 O.O.A < Z U 8 1 < g k j Q 7.7.5.6.a.p.              ",
"                    T ( ! Y [ R / U.9.^ Q J N , r p > & ; p N z x z x j n B 1 & & 2 k 8 1 8 g j m ^ Q ^ ~ 5.9.g.                ",
"                    T ! ( E [ ( U.Y.U.8.7.e.P g v ` F x z z b T W W ! ~ ~ ~ P g ; 8 :.n k B J Q 7.9.9./ / 5.9.g.                ",
"                    T T / [ [ [ U.).).~./.!.f.q.e.d.p.` b c T R ! ! ( ( 9.8.8.9.a.k.l.w.l J p.f.~.R.U.Y.9.9.9.0.                ",
"                    ~ ) ! [ [ I.I.(.1X4X3XdX5XOXf.d.d.' E R U.U.I.U.U.R.R.).R.T.~.].`.:.<.V..X$X1X].].^.U.8.9.g.                ",
"                    ! W T [ ( I.U.).2X6X7X2X6X5X%Xh.h.f.U.R.).(.).).oX,X1X<X}.^.].`.g.k..XtXtXtX5X2X}.].T.Y.0.g.                ",
"                    ) R R ! ( R./.].(.Q.f.p._ x x _ a.f.Y.}.7X4X,X<X4X3XkX7X}. X.X.X=XrXuX:XtXnX5X*X*X]._.T.0.g.                ",
"                      T R ( / R.$X;X:X Xp.f.$Xd.~ Q q.t.f.!.7X6X7XfXjXfX7X}.!.|.B.B.<.<.w.V.V.#X:X*X].[._.Q.h.h.                ",
"                      ) T ! / s. X>X;X#X#XOXwXc.A u.k.q.P .XQ.].7X7X6X7X^.f.M.` J _ B..X!.g.l.V.=X:X$X].].T.j.                  ",
"                      F ) ! ! ` f.B.y.B.H.-.L.9 $ ; G.%.` P #X$X,X4X4X$Xh.u.` M.c.,.A >.zXyXV.k.#X#X#X`.'.W.j.                  ",
"                    d F c ! W ) L u.t.D e +.DX=.q b.L.=.U S y.#XoXrX3X|.t.P U M.G.q & q DXDXA w.V.=X#X'.j.0.g.                  ",
"                    u 5.F ' ! T x h j h t a +.=.=.=.*. .G p D h.|.|.|.B.u.K Z O.H.m.K.L.FXH.U B.V.i.l.l.l.h.g.                  ",
"                  ; :.'._ p.7.c u t g h t F ) H D U t._ h e g p.s.E.|.p.q.n B z V @.H.L.%.U n j <.V.i.l.j.j.g.                  ",
"                  f 0.[.g.h.d.c z z h h t e t U e._ x h < < j 9.E.E.E.' P l l k I ` $.&.p.Q k l :.1.g.j.j.j.w.                  ",
"                > z [.8X[.`.W.v v S s f N h < < 1 < < < , e Q f.~.E.E./ T > ; e B n n m m n K :.z.z.j.W.!.g.z.                  ",
"          e t t x g.0XqX0X8X*Xm W s @ * 3 N B N B B , & + ; s.XX/.|.E.I.( u % + & 1 M Z l B M B 6.0.W.Q.j.g.6.J                 ",
"] ` f y i b T W w.:XAXNXqX0X5XL ~ ) = - @ % % * * % # % % c XX1XoX/.E.E.R.E.z = + @ + % % * * = 5.W.W.W.!.j.i.m B               ",
"!.o.v ( ( 7.E..XdXbXAXNX8X8XnX' ~ ' s * @ @ @ @ * * f L B.1X6X5X%XXX/./.,X1X X` d = = * * = *.$.8.Y.W.!.!.!.l._ m l h           ",
"V.#.N R.).).%X4X6X9X      / 5X.XR s./ ) X.*.= 3 | ` ~.4X9XMXMX6X4XoXoX+XkXjXfXaXeXOXB.| d $.!.Q.Q.W.W.Q.`.%XOXV.' W b b y y m '.",
"] } 4 R.).(.{.}.            *X:XT / R.Q.1Xf.s.OXjXbXmXNXBXBXNXvX5X+X+X4XfXMXjXhXjXhX3X%X$X$X].].Q.Q.Q.Q.oX4XaX3X.XU.( E b u N.*X",
"` p 1 /.{.{.}.                dXt.! U.^.(.1X1XvXSXSXSXBXSXSXAXbXaX-X-XiXfXsXpXpXpXpX;X%X$X1X].`.W.Q.Q.(.oX1X4X4X,XoXI.I.^ ( N.>X",
"c f > ,X{.{.                  8X X! / E.~.(.6XNXSXSXSXGXGXSXmXtX-X+XrXiXpXpXeXrXrX-X;X$X&X*X`.`.`.Q.~.          ,X{.).U.U.R.v.A.",
"  f d 1X                        s.! ' 8.E. XMXGXJXPXUXPXIXHXbX;X+X-XrX-XpXeXeXyXrX;X;X:X*X*X[.'.&X^.                ).).U./.1.N.",
"  u I.                          ] / s.E.E.oXnXVXKXPXUXPXIXGXZXdXrX-X-XrXpXpXpXpXrX;X5X5X2X*X*X*X].].                  ).U./.>.i.",
"                                  s.].*X.X;X;X.X-XVXJXPXIXGXHXVXbXdXiXaXsXsXsXdXdX5X9X8X2X5X*X2X^.                      U.,Xw.i.",
"                                  ^.9XbXOXt.~ f.|..XfXKXJXGXHXHXZXCXbXsXrXeXsXiX X:X5X5XdXtX2X}.^.                        7X!.B.",
"                                    NXmXf.|.&X;XOX|.OXbXMXZXGXHXdX.XxXeXp..XgXdX:X3X5XdXdX:X*X(.                            7X  ",
"                                      MX%XOXVXZXbXwX@XhX0XmXHXZX X|.xXhXrXeXrXOX-XiX X.X;X*X$X                                  ",
"                                        9X%XaXCXZXwX) yXLXKXLXCXhXxXxXCXCXbX;Xp.B.-X$X%X2X1X.X                                  ",
"                                          NX5X;XbXxX.X-XbXbXhXgXgXjXdX*XpXfXkXiXrX-XiX5X%X                                      ",
"                                            4X%X5X5X%X%X4X4X3XgXxXjXaX+XsXsXkX3XoX%XfXdX                                        ",
"                                              6X0XMXvXvXmXsX3XiXeXgXgXgXeX@XwX3XvXMX                                            ",
"                                                  MXBXSXSXVXgX] ] gXgXgXwXwXaX9XqX                                              ",
"                                                        vXmXdX3X4XaX<X+X+X4X                                                    "
};
