/* XPM */
static char *fe45923050204de7898fdbf823b9a71deN9NaQbi1bhPdX0o[] = {
/* columns rows colors chars-per-pixel */
"64 64 256 2 ",
"   c None",
".  c #060704",
"X  c #0A0904",
"o  c #090704",
"O  c #160D06",
"+  c #1B1609",
"@  c #171A11",
"#  c #23180A",
"$  c #31190A",
"%  c #29220C",
"&  c #37260C",
"*  c #282614",
"=  c #3B3213",
"-  c #1F200D",
";  c #472C0B",
":  c #5A260B",
">  c #4C390C",
",  c #553A0C",
"<  c #5C3C0C",
"1  c #55340B",
"2  c #4C2C12",
"3  c #473A16",
"4  c #5B3D15",
"5  c #543912",
"6  c #5C2911",
"7  c #64290D",
"8  c #613B0C",
"9  c #653916",
"0  c #783A15",
"q  c #6B2E12",
"w  c #582D18",
"e  c #5C440C",
"r  c #544B0C",
"t  c #5D4B0D",
"y  c #564909",
"u  c #5C530B",
"i  c #59560A",
"p  c #5C4413",
"a  c #5D4B13",
"s  c #584618",
"d  c #5C5113",
"f  c #4E4808",
"g  c #65440C",
"h  c #644B0D",
"j  c #6C4B0C",
"k  c #6A460A",
"l  c #754C0C",
"z  c #64540C",
"x  c #6C540D",
"c  c #645A0C",
"v  c #6B5C0C",
"b  c #665906",
"n  c #73530D",
"m  c #775A0D",
"M  c #634415",
"N  c #644B12",
"B  c #6C4D12",
"V  c #63491B",
"C  c #684619",
"Z  c #734D13",
"A  c #774617",
"S  c #645311",
"D  c #6C5412",
"F  c #6D5B12",
"G  c #6B541B",
"H  c #655717",
"J  c #745512",
"K  c #7C5513",
"L  c #735C14",
"P  c #7B5B13",
"I  c #72541B",
"U  c #775B1A",
"Y  c #5F620B",
"T  c #6D630C",
"R  c #6C6B0B",
"E  c #686607",
"W  c #73640C",
"Q  c #7C630E",
"!  c #746C0C",
"~  c #7B6C0B",
"^  c #756905",
"/  c #7D740C",
"(  c #787609",
")  c #6D6413",
"_  c #7C6213",
"`  c #796717",
"'  c #7D7415",
"]  c #7C7717",
"[  c #6B7409",
"{  c #644D22",
"}  c #684A24",
"|  c #6C5A23",
" . c #6A5429",
".. c #6C5B2C",
"X. c #675426",
"o. c #725D24",
"O. c #735827",
"+. c #6B5C34",
"@. c #735A32",
"#. c #714C25",
"$. c #776328",
"%. c #786737",
"&. c #6E602C",
"*. c #544D21",
"=. c #725A43",
"-. c #7A6E45",
";. c #8B3D19",
":. c #825A0C",
">. c #884B1A",
",. c #97481D",
"<. c #835C14",
"1. c #865618",
"2. c #99551D",
"3. c #A1521E",
"4. c #83650E",
"5. c #846B0C",
"6. c #8B690E",
"7. c #83740A",
"8. c #8B7C0B",
"9. c #87770A",
"0. c #927A0E",
"q. c #836413",
"w. c #8B6514",
"e. c #836B13",
"r. c #8B6B13",
"t. c #846B1A",
"y. c #8A6C1B",
"u. c #86641A",
"i. c #936B16",
"p. c #847413",
"a. c #8C7413",
"s. c #847D14",
"d. c #8B7C14",
"f. c #89781C",
"g. c #937513",
"h. c #937B15",
"j. c #9A7D14",
"k. c #94741D",
"l. c #9A781B",
"z. c #92650F",
"x. c #964C21",
"c. c #8B5926",
"v. c #945724",
"b. c #8C5130",
"n. c #A85726",
"m. c #AE542C",
"M. c #886625",
"N. c #986627",
"B. c #8A7624",
"V. c #967725",
"C. c #926F32",
"Z. c #A7682B",
"A. c #A57A29",
"S. c #AA6832",
"D. c #AC7536",
"F. c #B36C37",
"G. c #845841",
"H. c #86714B",
"J. c #B57648",
"K. c #B16D49",
"L. c #A57867",
"P. c #CC724C",
"I. c #7D820F",
"U. c #88860C",
"Y. c #94830A",
"T. c #98890A",
"R. c #8C8B14",
"E. c #898417",
"W. c #9B8413",
"Q. c #9C8B15",
"!. c #9C841C",
"~. c #958A18",
"^. c #9C9315",
"/. c #94931C",
"(. c #999518",
"). c #8D9311",
"_. c #A28E0C",
"`. c #A28C1C",
"'. c #A48A18",
"]. c #A7971A",
"[. c #AE9414",
"{. c #9CA115",
"}. c #A2A417",
"|. c #8E8824",
" X c #9C8C23",
".X c #968727",
"XX c #9C9324",
"oX c #9A9728",
"OX c #978B34",
"+X c #9B9635",
"@X c #8D8638",
"#X c #A58929",
"$X c #A49424",
"%X c #A49C2D",
"&X c #A99728",
"*X c #B29B27",
"=X c #A48736",
"-X c #A49C3D",
";X c #A79737",
":X c #B29939",
">X c #B38634",
",X c #9CA128",
"<X c #9DA135",
"1X c #A7A529",
"2X c #B5A72A",
"3X c #ACA43C",
"4X c #A8A637",
"5X c #B7A839",
"6X c #B8B435",
"7X c #B1B22C",
"8X c #C6AC2B",
"9X c #C5B637",
"0X c #C6AC37",
"qX c #DCC737",
"wX c #9A9247",
"eX c #A59D4B",
"rX c #A79A45",
"tX c #B49A46",
"yX c #AA9B54",
"uX c #BB844A",
"iX c #ACA443",
"pX c #ACA44B",
"aX c #AAA745",
"sX c #B2AB4B",
"dX c #B5A944",
"fX c #B7B449",
"gX c #ACA656",
"hX c #B4AB56",
"jX c #B8B557",
"kX c #ACB240",
"lX c #958A71",
"zX c #B79169",
"xX c #B6AF66",
"cX c #C68954",
"vX c #C6BC47",
"bX c #C7BA57",
"nX c #CAAE49",
"mX c #D4C558",
"MX c #D0CA4A",
"NX c #E4D756",
"BX c #F3EB59",
"VX c #D6CA67",
"CX c #C9C366",
"ZX c #E6D879",
"AX c #E3D669",
"SX c #F7EF6C",
"DX c #B19D86",
"FX c #C1BBAB",
"GX c #FCF699",
"HX c #F7ED8C",
"JX c #FAF7BA",
"KX c #EFEAA8",
"LX c #E2D98D",
"PX c #FBFCDB",
"IX c #FAF9C4",
"UX c #FBFDE8",
/* pixels */
"                                                                                                `.&X>XA.i.i.i.B.                ",
"                                                                                                _ N.N.v.c.1.1.!.7X              ",
"                                                                                                y i ( ~.)./.,X7X                ",
"                                                                                                y b E U.).U.).                  ",
"                                                                                                b ^ [ U.).).                    ",
"                                                                                              k b ^ ).).).                      ",
"                                                                                              l ^ E./.(.                        ",
"                                                  U _ q.r.a.f.                              N n 5.XX,X,X                        ",
"                                      m Q _ q.4.4.q.5.5.9.6.a.0.g.g.g.a.g.h.              J m e.|.-X4X                          ",
"                              m m Q _ Q 4.q.q.5.5.4.6.5.6.5.5.5.7.9.8.0.0.j.j.j.g.g.g.r.z.w.i.l.+XaX4X                          ",
"                        g n J Q Q Q 4.e.4.4.5.r.r.5.4.4.5.5.5.7.7./ 9.Y.T.W._.j.g.j.h.g.g.g.l. X#X4X4X                          ",
"                      j n m _ 4.5.e.r.r.r.a.r.y.r.w.6.4.4.5.5.5./ 9.Y.T.]._.'.'.j.j.j.j.j.j.j.!.$XoX(.                          ",
"                  g j J P q.4.r.r.r.i.r.r.y.y.y.u.u.w.P m 4.5.~ 7.8.Q.].}.[.].`.`.l.l.j.W.W.W.!.W.Q.^.                          ",
"                j Z K <.<.w.w.r.i.i.i.r.w.r.q.q.P n K n n n Q ^ 9.Y.].}.].].#X&X#Xl.i.l.j.W.W.W.W.!.Q.~.                        ",
"              G Z U <.q.w.r.i.i.r.4.<.w.k.V.V.C.e.q.4.k < k j W U.T.].7X2X*X:X#X#Xi.N.w.z.0.Y.T.W.Q.Q.Q.^.(.                    ",
"          o.I J U <.<.q.w.z.6.:.:.z.l.A.>X=XOXV.D , 6.g.k < k m / R.%X5X:X:X>X XV.V.<.<.6.6.5.h.Q.Q.Q.'.&X].].^.                ",
"        o.o.J U _ <.U <.i.<.:.:.z.i.i.l.A.A.A.y.N ; m '.4.8 8 j Q d.%XtXnX#X.Xk.q.f.j n P A = ` ^.].`.!.].*X2X].}.              ",
"      o.$.I J P K u.<.1.K 1.<.1.z.N.D.F.S.>.8 ; 8 n :.#Xy.8 8 g n t..XtXtXV.l.N.A K n k K s * *.~.].].$X[.[.*X*X*X&X|.          ",
"      o.o.J K P K <.<.K l :.K 1.S.J.F.,.q $ O ; r.h.!.V.k.j 1 4 N K V.;X>XV.h.yXDXH.L Q l j * = $.].*X&X*X*X5XtX:X1X*X          ",
"    | o.I J m J K 1.K Z Z l 1.S.cXS.,.q 2 2 q :.h.!.$X Xl.u.8 1 g l :.=XtXu.V.zXDXFX-.r.K n * * s $X].&X:X2X2XdXiX:X2X%X        ",
"  G o.&.D J J P K Z I Z Z K Z.J.K.;.1.2.9 2.0 4.!. X X!.l.l.K 8 n w.4.k.;X<..X>.q L.L.&.P Z # * | %X%X&X;X8X9X2XdX.X%X5XfX      ",
"  G $.U L J J n Z Z I I A 1.>XJ.3.1.v.>.A ,.0 d. X(. X!.V.N.Z j <.j.`.g.=Xq.B.>.2 K.H.) J k + = B.3X-X;X;X3X9XdX5X X&XrXnX      ",
"p | $.I D n J n B G O.I Z N.cXF.,.D.C 2 c.2.l W.%XXX!..XV.N.9 2 8 k.$X`..XM.q.v.q G.+.$.J , @ = OXgXaX-X=X:XdX:X5XpX-X+X%XmX    ",
"p o.o.G D D j B C | O.#.Z D.cXn.S.A O O b.;.l /.oXoX.X.XC.N.C $ ; a.Q.^..XV.J v.G.C.V J B & + d eXjXpXpXrXrX5X X:X-XB.pXoX6XqX  ",
"p $.o.G N N B C G O.O.X.l uXP.n.D.# . X v.0 l XX%XoXoXOXB.C.@.& g 9.T.^.^.V.` M.C.} N B 8 # & ` aXsXpXeXeXpXiXiXdXOXd.3X3X5X6X  ",
"V &.| N N B M M X...O.C >.zXP.n.} X o # ,.q k $X<XoX+X@XC.C.#., :.8.).oX}.~.t.M.U D B j ; % c /.fXjXsXyXyXpXsXhXpXrX-XdXaXwX3X  ",
"a %.| V N N M V  ...@.C N.zXm.D.$ X o } n.q k |.+X+XOX@XC.&.C j Q U.R.1X7X}.f.u.P K K l > u d.1XMXjXsXrXrXpXsXeX|.yXbXfXkXwXwX4X",
"V &. .N p M M }  ...O.g N.J.n.J.O X X b.Z.0 l ~.|.|.] ` U C 1 l ~ 8.R.1XkX7X^.d.t.q.<._ T ( R.oXfXfXfXiXpXpXsXrXp.wXCXiXgXeXwX+X",
"{ @. .s 4 V 4 }  ... .8 N.J.x.b.X . . >.b.7 n .XI.] ` U V 5 1 n ~ ( R.,XaXjX7X{..Xf.s.' ' U.E./.+X4XaXaX-XrXaXsXyXhXCX&X+XgXpX+X",
"} @.} { V 4 4 { .... .g S.J.m.9 X . . A ;.7 <.%X|.B.` U C 1 < j ! ( U.oX4XjX6X4XrX.XE.E.E.E.R./.oX<X-XrXrX-XiXbXxXxXxXaXdXgXgX<X",
"} @.} 4 4 s 4 {  .@. .k N.J.S.#.X X X n.2.7 q.-X+XB.M.o.G 1 < x W ( I./.<XkX6X4X-X|.|.E.E.~././.oX;X+X-XrX-XdXCXoX|.xXjXxXgXyX4X",
"}  .} } 9 4 4 } | ..X.g Z.K.m. .X X X S.,.: J ;X+X@X$.M.C 2 , x T ! U.).oX1X7X1X+XE.s.E.R.XXoX+X%X3XpX+X+X-XbXZXdX XgXgXxXgXI.4X",
"} @.} M s 9 4 s X... .p N.K.x.C o . o 9 0 : x |.oX@XB.M.I 5 > h v ! U.).4X6X}.#X#Xl.p.p.d.$X1X5XfXvXvXaXwXfXAXHXHXZXmXgXgXiX] 5X",
"V @.} M C 9 4 4 X...@.M <.F.m.v.o o . 2 A : k U.E.E.B.t.G 5 ; h b E U.).7X7XQ.#Xa.D k x m s.oX6XMXNXAXCXbXZXHXHXHXHXLXbXpX-XyXfX",
"} @. .C 9 M 4 4 { +.&.} A S.n.S.O . . 4 v.q B s.I.] ' U G 4 & p h c R R.}.Q.!.L B e < e e = c 1XqXBXSXSXHXGXGXGXZXmXKXbX4X5XVXMX",
"C $.#.M M M 9 5 { X.@. .Z v.m.3.* . . 2 0 : D s.] ] ` $.G s + ; z c ) U.Y.f.q.o.I G h , , + & f.6XBXSXGXJXIXIXJXnX0XLXbX4XmXZXMX",
"a %. .M M M p 4 s { ..+.V >.D.3.0 # o 9 >.6 L s.] ] M.M.G s % & D ` ' d.f.` u.%.=.G U g e & % L 4XNXBXGXPXPXPXHXjXgXeXrX1XbXSX  ",
"  %.@.V M M M p 4 s X.&.{ A Z.S.x.w # # A 7 L ] ] ' f.B.G s ; > F p.d.h.a.q.V.G.lX} y.D < 4 # 3 !.mXSXHXUXUXJXjX+XwX) C.%XvXBX  ",
"  ..-.{ M p p p p s s H H p 1.S.m.0 & O 2 w F ] ' ' y.M.U a 5 a ` d.d.h.q.Q u.; b.=.L _ < g % * t.bXSXSXPXPXVX.X.XOXeXbX5XMXMX  ",
"  N H...a a p p p p s s a t N u.n.x.7 O # 2 D ' ] p.k.y.U F a r v ~ f.&Xx _ l $ q =.D e., j & * H fXAXSXJXKX;X|.OXbXZXbX4X6X    ",
"    &.%.X.a s N t N p p s y y N 1.v.,.: O O B ! d.!.l.t.L N , > x _ #X5Xz f.c.9 G.=.X.) , N % - 3 OXvXNXHXVX.Xf.;XZXCX%X%X6X    ",
"    d %.&.d a a d N N a e e e y p K x.x.9 $ > e.a.f.' L h < , h J f.3X0X` $XwXlXDX*.G S e B * @ = ] 1X6XmXvX-X` =XVXaX5X4X      ",
"      | %.X.d a d z S h N N t e a g B 1.c.5 ; e m W L D < < N J e..XdX2Xp.d.A.H.+.a F a N N @ @ *.|.1X(./.&X;X] .XOX%XNX        ",
"        | &.d d d d z z h S N D B D D U U Z 1 ; x _ J 8 < h J Q 9.(.5X7XE.y..XC.s t h e N 3 @ @ H %X].~.E.f. X=Xf.%X9X          ",
"        a &.&.r a d H H z F F D D D D Z J P k j P ` h < g j v ^ 8./.4X2X^.#X#XV.D h k h 5 % - * ) ^.(.E.s.d.&XbXmXMX            ",
"          a $.H r r u i H H c ) L F S e t h h v W D < M N x ^ 9.U.R.1X1X(.&X;XB.t.k h h f - = d ] R.U./ 7.s.}.9XNX              ",
"            a ) d r y y i z c F ) L F H S S z S h e 4 N x b ^ Y.T.R./.).$X*X;XM.` h t b H s ) p.s./ ! ! ! ' s.(.                ",
"                D y t u u i i u c v F v x S N B p p a S b b R ( U.U.I.U.~.%X XB.` x t z F W ! ! E T t. XE.!                     ",
"                  n t z T m b E b b i i b c i u t u u u Y Y E [ [ ( ( I.U.E.s.` ) T c c b n Q w..X:XnX2X                        ",
"                      e u T ~ 7.9.7.^ ^ b i i y y f r i i i Y [ [ [ [ ( ( / / ( T ~ p.a.!.*X0XnX5X&X                            ",
"                        j m ^ ~ 8.Y.Y.Y.Y.U./ ^ u u r f r i i Y [ [ R [ ( ( ! ! ! ~ p.h.[.8X0X*X7.                              ",
"                            y y ^ ( Y.Y.T._._.Y.9.^ E c b E R ^ ~ / ! R R ) ) ) F ) 4.g.#X8XqX8X                                ",
"                                  i b ( 9.Y.T._._._.Y.a.7.7./ ~ ^ E T ) R T ) c H e.'.[.8XqXBXNX                                ",
"                                        Y ( 8.T._._._._.0.7.! T T T ' ! )       r z m g.[.0XAXAX                                ",
"                                                                                    = f z d.:XmX9X                              ",
"                                                                                        > x 4.dX6X                              ",
"                                                                                          u ^ .X4X}.                            ",
"                                                                                          e T s.<X}.}.                          ",
"                                                                                          r b 7./.(.{.{.                        ",
"                                                                                            t ( ).).{.{.                        ",
"                                                                                            y ( ).R./.,X1X                      ",
"                                                                                            f W N 4 > > d I.                    ",
"                                                                                            ` o.#.} p e y i                     ",
"                                                                                            ] !.B.] ` u                         "
};
