/* XPM */
static char *f9323f0c6a844509b3e9cead9d2ed6fcn4AMJjlP7QbcCMM8[] = {
/* columns rows colors chars-per-pixel */
"64 64 256 2 ",
"   c None",
".  c #060704",
"X  c #0A0904",
"o  c #090704",
"O  c #160D06",
"+  c #1B1609",
"@  c #171A11",
"#  c #23180A",
"$  c #31190A",
"%  c #29220C",
"&  c #37260C",
"*  c #282614",
"=  c #3B3213",
"-  c #1F200D",
";  c #472C0B",
":  c #5A260B",
">  c #4C390C",
",  c #553A0C",
"<  c #5C3C0C",
"1  c #55340B",
"2  c #4C2C12",
"3  c #473A16",
"4  c #5B3D15",
"5  c #543912",
"6  c #5C2911",
"7  c #64290D",
"8  c #613B0C",
"9  c #653916",
"0  c #783A15",
"q  c #6B2E12",
"w  c #582D18",
"e  c #5C440C",
"r  c #544B0C",
"t  c #5D4B0D",
"y  c #564909",
"u  c #5C530B",
"i  c #59560A",
"p  c #5C4413",
"a  c #5D4B13",
"s  c #584618",
"d  c #5C5113",
"f  c #4E4808",
"g  c #65440C",
"h  c #644B0D",
"j  c #6C4B0C",
"k  c #6A460A",
"l  c #754C0C",
"z  c #64540C",
"x  c #6C540D",
"c  c #645A0C",
"v  c #6B5C0C",
"b  c #665906",
"n  c #73530D",
"m  c #775A0D",
"M  c #634415",
"N  c #644B12",
"B  c #6C4D12",
"V  c #63491B",
"C  c #684619",
"Z  c #734D13",
"A  c #774617",
"S  c #645311",
"D  c #6C5412",
"F  c #6D5B12",
"G  c #6B541B",
"H  c #655717",
"J  c #745512",
"K  c #7C5513",
"L  c #735C14",
"P  c #7B5B13",
"I  c #72541B",
"U  c #775B1A",
"Y  c #5F620B",
"T  c #6D630C",
"R  c #6C6B0B",
"E  c #686607",
"W  c #73640C",
"Q  c #7C630E",
"!  c #746C0C",
"~  c #7B6C0B",
"^  c #756905",
"/  c #7D740C",
"(  c #787609",
")  c #6D6413",
"_  c #7C6213",
"`  c #796717",
"'  c #7D7415",
"]  c #7C7717",
"[  c #6B7409",
"{  c #644D22",
"}  c #684A24",
"|  c #6C5A23",
" . c #6A5429",
".. c #6C5B2C",
"X. c #675426",
"o. c #725D24",
"O. c #735827",
"+. c #6B5C34",
"@. c #735A32",
"#. c #714C25",
"$. c #776328",
"%. c #786737",
"&. c #6E602C",
"*. c #544D21",
"=. c #725A43",
"-. c #7A6E45",
";. c #8B3D19",
":. c #825A0C",
">. c #884B1A",
",. c #97481D",
"<. c #835C14",
"1. c #865618",
"2. c #99551D",
"3. c #A1521E",
"4. c #83650E",
"5. c #846B0C",
"6. c #8B690E",
"7. c #83740A",
"8. c #8B7C0B",
"9. c #87770A",
"0. c #927A0E",
"q. c #836413",
"w. c #8B6514",
"e. c #836B13",
"r. c #8B6B13",
"t. c #846B1A",
"y. c #8A6C1B",
"u. c #86641A",
"i. c #936B16",
"p. c #847413",
"a. c #8C7413",
"s. c #847D14",
"d. c #8B7C14",
"f. c #89781C",
"g. c #937513",
"h. c #937B15",
"j. c #9A7D14",
"k. c #94741D",
"l. c #9A781B",
"z. c #92650F",
"x. c #964C21",
"c. c #8B5926",
"v. c #945724",
"b. c #8C5130",
"n. c #A85726",
"m. c #AE542C",
"M. c #886625",
"N. c #986627",
"B. c #8A7624",
"V. c #967725",
"C. c #926F32",
"Z. c #A7682B",
"A. c #A57A29",
"S. c #AA6832",
"D. c #AC7536",
"F. c #B36C37",
"G. c #845841",
"H. c #86714B",
"J. c #B57648",
"K. c #B16D49",
"L. c #A57867",
"P. c #CC724C",
"I. c #7D820F",
"U. c #88860C",
"Y. c #94830A",
"T. c #98890A",
"R. c #8C8B14",
"E. c #898417",
"W. c #9B8413",
"Q. c #9C8B15",
"!. c #9C841C",
"~. c #958A18",
"^. c #9C9315",
"/. c #94931C",
"(. c #999518",
"). c #8D9311",
"_. c #A28E0C",
"`. c #A28C1C",
"'. c #A48A18",
"]. c #A7971A",
"[. c #AE9414",
"{. c #9CA115",
"}. c #A2A417",
"|. c #8E8824",
" X c #9C8C23",
".X c #968727",
"XX c #9C9324",
"oX c #9A9728",
"OX c #978B34",
"+X c #9B9635",
"@X c #8D8638",
"#X c #A58929",
"$X c #A49424",
"%X c #A49C2D",
"&X c #A99728",
"*X c #B29B27",
"=X c #A48736",
"-X c #A49C3D",
";X c #A79737",
":X c #B29939",
">X c #B38634",
",X c #9CA128",
"<X c #9DA135",
"1X c #A7A529",
"2X c #B5A72A",
"3X c #ACA43C",
"4X c #A8A637",
"5X c #B7A839",
"6X c #B8B435",
"7X c #B1B22C",
"8X c #C6AC2B",
"9X c #C5B637",
"0X c #C6AC37",
"qX c #DCC737",
"wX c #9A9247",
"eX c #A59D4B",
"rX c #A79A45",
"tX c #B49A46",
"yX c #AA9B54",
"uX c #BB844A",
"iX c #ACA443",
"pX c #ACA44B",
"aX c #AAA745",
"sX c #B2AB4B",
"dX c #B5A944",
"fX c #B7B449",
"gX c #ACA656",
"hX c #B4AB56",
"jX c #B8B557",
"kX c #ACB240",
"lX c #958A71",
"zX c #B79169",
"xX c #B6AF66",
"cX c #C68954",
"vX c #C6BC47",
"bX c #C7BA57",
"nX c #CAAE49",
"mX c #D4C558",
"MX c #D0CA4A",
"NX c #E4D756",
"BX c #F3EB59",
"VX c #D6CA67",
"CX c #C9C366",
"ZX c #E6D879",
"AX c #E3D669",
"SX c #F7EF6C",
"DX c #B19D86",
"FX c #C1BBAB",
"GX c #FCF699",
"HX c #F7ED8C",
"JX c #FAF7BA",
"KX c #EFEAA8",
"LX c #E2D98D",
"PX c #FBFCDB",
"IX c #FAF9C4",
"UX c #FBFDE8",
/* pixels */
"                        c ` ] B.!.]                                                                                             ",
"                    i f e M #.#.O.`                                                                                             ",
"                    I.i > > 4 a T f                                                                                             ",
"                      1X,X/.R.R.( r                                                                                             ",
"                        {.).).).( u                                                                                             ",
"                        {.{.(.).7.b y                                                                                           ",
"                          }.}.%XE.T t                                                                                           ",
"                            }.4X.XW t                                                                                           ",
"                              6XnXw.x >                                                                                         ",
"                              9XmX>Xg.x f =                                                                                     ",
"                                AXAX0X[.8.Q h r       ) ! ' v R T ^ 7.0._._._._.T.8./ Y                                         ",
"                                NXNXqX8X[.j.5.v c ) ) R ) T E ^ ( / 7.5.8.Y._._._.T.Y.9.^ E i                                   ",
"                                8X9X8X*Xa.4.) H ) R W R E ~ / ~ ! T E i c v ^ 9.Y._.T.T.Y.U.7.^ u y                             ",
"                              / 2X0X8X[.h.p.e.! ! ! ! ! [ [ [ E Y i i i f f i i ^ ( 8.Y.Y.Y.Y.8.~ T m j                         ",
"                            1X5XnX0X*X!.a.7.! R / / / ( [ ( [ [ [ Y i i i r r r i i u b ^ ^ 9.9.9.^ E z e                       ",
"                        6XnX:X.Xe.) W v c c E ) ` s.R.R.I.( ( [ R E E i i u d u u u b b i i b b b E m T b y n                   ",
"                    ] s. Xt.R T ! ~ R c h t v ) t. X&X/.U.U.U.U.( ^ b b S N p p B N S v F F F c b u r u u u y D                 ",
"                ^.s./ ! ! ! / / p.) s S z h h u.B.:X;X].~.).).R.U.^ v z M p < t S u N D D L ) ) v c u u r r r a $.N             ",
"              NX9X].U./ ' U.R./ d 3 - s h h h t.B.=X&X$X1X1X~.U.9.^ x h p , L W x z h t t S F L ) F c c u d r r H $.a           ",
"            MXbXbX*Xd.d.E.(.Q.` * @ - s h k h D V.#X X~.7X4X(.8.^ m j M 4 j ` Q j j P J B N D F D c D D c H d r s | &.a         ",
"          9X%X|.OX|.E.E./.(.1X..@ @ 3 N h t t e C.OXf.E.7X5X/.9.Q x M 8 8 L P x ; ; I 1.Z G B N N D D z S z S d d d &.|         ",
"        NX%XOX.XB.;X$X X(.,XB.*.@ # N g e F s +.-.C.d.t.2X5X.Xe.m h < < z _ _ x e ; 4 1.1.B h e t t e N S S d t d d X.%.|       ",
"      4X5XiXVX#X! ;XnXvX6X1X] = @ * B e S G +.DXL.wXXX_ 5X5Xf.P N , e h L e.f.d.q.> # 9 x.v.K M e e e p a h N a r a d &.%.V     ",
"    7X%X;XmXLX;Xf.+XVXHXNXvX+X3 @ * B , ) H =.@.} c.d.D 0X.X_ h , , N L t.l.!.d.~ j # O : ,.n.1.N e r p p p a h a a d X.%.&.    ",
"    9X4XCXZXhXOX.X;XKXJXSXSXfXH * & j < e.D =.7 $ A Q x %Xk.' F r p G U y.f.a.' ] H 2 # O 6 x.Z.M.N t a s s p p p p a a +.H.V   ",
"  MXvX6XbXrXwXV..XCXPXPXSXSXMX` * % g < _ U =.b.2 1._ ~ a.a.d.~ a , a L B.y.` ] ] L 6 2 o ; 0 n.Z.1.p V G s s s p a M p { %.&.  ",
"  BX9X2X@X) @X;XfXJXUXUXHXBXmX.Xf # , e D t. .lX=.V.q.f.h.d.p.F > ; p G B.y.t.] ] L 6 C # # w x.F.Z.k { ..X.{ 5 p M M p V @.%.  ",
"  SXbX%XrXeXhXbXKXPXUXPXGXBXNX1XF % & , g U G %.C.q.e.a.d.' ` x & % p H M.B.] ] s.L 7 >.9 o # q 3.Z.c.V ....{ 4 4 4 M g M  .%.N ",
"mXSXbX1XbXLX0XMXJXJXIXIXGXBXBX9XB.& + , < h G I O._ f.Y.E.E v u ; # s G $.t.' s.] x : 0 2 . X $ 2.F.n.k  .+.| { 4 9 M M M } $.V ",
"CXVXdX4XbXKXbXZXGXGXGXHXSXSXNXMX4Xd = e < < e N ) V./.}.R.) v t p % s G _ ` ] ] E.j q v.9 . . O Z.m.S.l { +...{ 4 4 M M C X.@.} ",
"kXgX3XaXhXLXHXHXHXZXZXbXVXAXNXMX6XXXp.Q x h x k.#XQ.7X7X).I.R b a ; 5 G $.B.E.E.U.k 6 0 & . . X c.n.K.1.M @.+.X.4 4 9 M C } @.V ",
"5X] iXgXhXVXZXHXHXAXnX-XtXbXvXvX6X1XXXd.9.5.h.#X`.].9X1X(.U.! T z 1 1 G B.B.|.+X|.Z : 0 #.. o X 9 2.J.2.e  ... .s 4 9 M V } @.} ",
"4X%.eXxXgXhX XdXZXbXrX+X+X3X3X4X+XoX/.~.E.E.f.oX,X7X1X,X).U.! T x , 2 C $.M.@X+X;Xm 7 ,.n.X X X @.Z.J.N.g X... .V 4 4 V 9 } +.} ",
"4XyXgXjXjXxX|.#XCXdXrX+X-X-X+X+X/././.E.E.E.|.aX4X6XfX<X/.( ( W x < 1 C ` M.B.OX-Xq.7 2.Z.X X X #.m.K.S.g  .@. .{ 4 4 M { } +.} ",
"<XpXsXdXdXxXxXxXjXdX-XrXrX-X+XoX/.E.E.E.s.|.|.iX4X6XjX4XoXU.( ! j 8 1 C U $.f.|.;XP : >.0 . . X 9 n.K.C.k #.....{ 4 p M } } @.} ",
"+XpXgX;X&XCXhXeXsXaXiX-XaXiX4X<X/.R.s./ ' p.B. X].7XfXkX,XR.7.^ n 1 5 B L ` ] |.!.l 7 v.>.. . X b.,.J.S.g  ... .{ p p M s } @.} ",
"<XwXwXsXdXCXrX7.rXsXpXaXpXfXfX6XoXR.( T P <.q.t.d.(.7XkX,XR.9.~ Z < } ) ` ] |.|.~.j 0 S.N.. . O uX3.J.N.9 @... .V M p M s  .$.{ ",
"eXwXwXkXfXjXyX|.eXsXpXeXpXsXbXjX1XE.u > l K K P ` k.}.7X1X~.E.~ k C $.%.@XOX+X+X!.8 q n.} . X # F.m.zXM.k @...| C M N N V  .@.a ",
"  3XwXkXdX-XrXyXhXsXpXyXeXpXjXkXXXc % ; l B B #.` M.XX{.{.).8.m 5 #.C.C.@X+X<X<XoXl q x.# . X #.n.P.zX1.C O... .V C N N C | $.s ",
"  6XaX4X3Xp.+XdXiXdXrXeXeXpXjXpX` & # 8 j N | C.M.` V.(.^.T.9.g & O.C.B.@XoXoX,XXXA 0 x.o . # D.n.P.uXJ #.O...G C k D N S o.%.a ",
"  qX9XoXpXB.rX:X X3XrXrXrXpXjXeXd @ & j L V C.G.v.L V..X^.~.g.; & C N.C..X.XoX%X/.:.0 x.O + C S.m.cXD.Z #.O.O.C B j x D F $.o.s ",
"    mX%X-X+XiX5X:XfX:XrX-XpXsXOX= + , Z P @.S.q >.L M..X`.$Xk.< : < N.V.V. XXXoX~.l ,.b.2 M D.2.F.cXN.Z I O.G B Z J J D G $.| p ",
"      fXiX#XXX5X0X9X5X=X;X4XiXB.* - h L @.H.K.$ >.k.U =Xh.'.j.1.k Z i.V..X!. XXX9.0 ,.A >.v.>.m.P.D.>.B G I B Z J n L J o.&.G   ",
"      fX5X%X.XiX2X8X5X:X#X%X%X| * % Z m c.lXL.q >..X<.;Xk.4.w.K 8 1.V.l. XQ. X~.6.0 v.9 2.>.;.F.uXZ.Z Z I Z K K K n n L o.O.G   ",
"        &X2X;XiXdX8X2X*X&X].$Xs * % Z m y.-.FXDXzX.Xt.:X.Xq.j g 1 4 u.l.#X!.!.h.K q 2 2 9 ,.F.cXA.1.l l Z K 1.K L m J I $.|     ",
"          1X2X:XtX5X*X*X*X*X].$.= * Z l _ L H.DXuXg.V.tXtXV.K g 8 1 N k..X!.h.z.; # $ q ;.F.J.D.1.1.K Z <.<.<.K K J J o.o.      ",
"           X].*X2X2X*X$X`.].].|.*.* M m j n U A A.k.A.tXtX.Xt.m k < 8 k.#X:.K 8 ; 6 >.Z.J.D.Z.<.:.1.K :.<.<.u.P P K I $.o.      ",
"              (.].].*X`.`.Q.].!.` = j :.l j B.q.k..X#XtXiX#XE.Q j 8 8 w.j.m ; h r.l.#XA.l.z.z.z.:.<.:.<.1.<.U P U J o.o.        ",
"                (.].&X$X^.W.Q.Q.8.e.r.6.:.<.k.V.#X;X:X:X5X1XR.p.v k < k g.r.1 x C.=X=XD.A.l.6.:.:.z.z.z.q.<.1.U I I o.          ",
"                    ].^.^.Q.Q.W.T.j.0.z.w.N.i.=X#X:X*X*X7X].T.9.^ j k 8 j Q e.t.V.V.V.k.z.:.4.w.l.i.r.w.q.<.U J D               ",
"                        ~.Q.Q.W.W.W.W.j.g.l.k.#X#X&X[.].}.].T.7.^ m n Z n n J P t.e.w.r.r.i.i.i.i.6.w.<.<.K j B                 ",
"                          ^.Q.Q.W.!.W.W.j.l.l.`.`.].[.].].T.U.7.5.5.4.m <.w.w.t.y.t.y.r.a.i.g.r.r.q.q.P n j g                   ",
"                          (.$X!.W.j.j.W.j.j.j.j.'._._.].^.Y.7./ ^ 5.5.5.4.q.w.r.y.r.a.r.r.5.r.e.Q Q m Z k                       ",
"                          4X4X%X#Xj.g.g.g.j.j.h.W.'.Q.T.Y.9.7.5.7.5.5.5.4.5.6.w.w.5.r.5.e.Q Q Q _ n n k                         ",
"                          <XpXOXl.r.w.r.r.i.g.g.j.j.j.0.8.8.8.5.9.6.5.5.5.5.6.4.4.4.Q Q Q Q Q P m                               ",
"                          4X-X.Xq.P n               a.g.9.g.g.g.g.6.9.6.5.e.q.4.q.q._ P P                                       ",
"                        }.,X|.] m M                               a.a.r.q._ U                                                   ",
"                        {.oXE.W n                                                                                               ",
"                      ).).U.( b j                                                                                               ",
"                    ).).U.^ ^ b                                                                                                 ",
"                  ).U.).I.[ b y                                                                                                 ",
"                7X,XoX/.R.( b y                                                                                                 ",
"              7XR.<.>.,.v.N.i._                                                                                                 ",
"                f.i.i.N.A.#X>X`.                                                                                                "
};
