/* XPM */
static char *be1c5abc3c9b45afe394f67a391b969aJhmwZqPSsdCiBmB8[] = {
/* columns rows colors chars-per-pixel */
"64 64 168 2 ",
"   c #1D0F06",
".  c #1E1005",
"X  c #221107",
"o  c #291607",
"O  c #231108",
"+  c #2A1608",
"@  c #2E1908",
"#  c #301A07",
"$  c #331B09",
"%  c #3A1F0A",
"&  c #3D2109",
"*  c #43240B",
"=  c #48260B",
"-  c #47280D",
";  c #4B290A",
":  c #532D0D",
">  c #582F0D",
",  c #56300D",
"<  c #5B320F",
"1  c #5B330F",
"2  c #5B320E",
"3  c #59310D",
"4  c #5C300D",
"5  c #5C310D",
"6  c #5D310D",
"7  c #5C300E",
"8  c #5D330E",
"9  c #5C320F",
"0  c #5D320F",
"q  c #5C330F",
"w  c #5E320E",
"e  c #5F330E",
"r  c #5F320F",
"t  c #5D340F",
"y  c #5E340F",
"u  c #5F350F",
"i  c #5B320E",
"p  c #492A11",
"a  c #522C10",
"s  c #532D10",
"d  c #542E10",
"f  c #552E10",
"g  c #562E10",
"h  c #562F10",
"j  c #572F10",
"k  c #562E10",
"l  c #582F10",
"z  c #573010",
"x  c #573010",
"c  c #583010",
"v  c #593010",
"b  c #593110",
"n  c #5A3110",
"m  c #5A3210",
"M  c #5B3210",
"N  c #5B3310",
"B  c #5C3210",
"V  c #5C3310",
"C  c #5D3310",
"Z  c #5E3310",
"A  c #5F3310",
"S  c #5D3410",
"D  c #5E3410",
"F  c #5F3410",
"G  c #5F3510",
"H  c #5D3310",
"J  c #60320E",
"K  c #60330E",
"L  c #61330F",
"P  c #60340E",
"I  c #61340E",
"U  c #62340E",
"Y  c #62340F",
"T  c #63340F",
"R  c #61360F",
"E  c #63360E",
"W  c #62370F",
"Q  c #64350E",
"!  c #64350F",
"~  c #65350F",
"^  c #65360F",
"/  c #64370F",
"(  c #66360F",
")  c #67360F",
"_  c #66370F",
"`  c #67370F",
"'  c #63350F",
"]  c #68360F",
"[  c #69370F",
"{  c #64380F",
"}  c #65380F",
"|  c #65390F",
" . c #66390F",
".. c #67390F",
"X. c #663A0F",
"o. c #673A0F",
"O. c #66390F",
"+. c #603410",
"@. c #603510",
"#. c #613510",
"$. c #613411",
"%. c #633410",
"&. c #623510",
"*. c #623511",
"=. c #613610",
"-. c #613710",
";. c #623610",
":. c #633610",
">. c #623710",
",. c #633710",
"<. c #613412",
"1. c #643410",
"2. c #643510",
"3. c #653510",
"4. c #653610",
"5. c #643710",
"6. c #653711",
"7. c #673610",
"8. c #663710",
"9. c #673710",
"0. c #653612",
"q. c #623610",
"w. c #683710",
"e. c #693710",
"r. c #643810",
"t. c #653810",
"y. c #653910",
"u. c #663810",
"i. c #673810",
"p. c #663910",
"a. c #673910",
"s. c #663A10",
"d. c #673A10",
"f. c #673812",
"g. c #663910",
"h. c #693810",
"j. c #683910",
"k. c #683911",
"l. c #6A3810",
"z. c #6B3810",
"x. c #6A3910",
"c. c #6B3910",
"v. c #683A10",
"b. c #693A10",
"n. c #683B10",
"m. c #693B10",
"M. c #683A11",
"N. c #693A11",
"B. c #6A3A10",
"V. c #6B3A10",
"C. c #6A3B10",
"Z. c #6B3B10",
"A. c #683812",
"S. c #693812",
"D. c #693912",
"F. c #6A3812",
"G. c #6A3912",
"H. c #6B3912",
"J. c #6C3B11",
"K. c #6C3A12",
"L. c #6D3A12",
"P. c #6D3B12",
"I. c #6D3B13",
"U. c #6E3B13",
"Y. c #6A3C10",
"T. c #6B3C10",
"R. c #6C3C11",
"E. c #6A3B10",
/* pixels */
"* * * * * * * * * * * * * * * * * * * * * * * * * * * * * & * * * * * * * * * * * * * * * * * * * * * * * * * * * * * * * * * $ ",
"* - - - = = - * = * * * * = * * = - = = - - = = - * * * = - * * * * * - * * * * * - * * * * = = - * * * = = - = * * * - * * * @ ",
"z ,.3.3.s.s.3.n ,.,.g a Z ,.Z n s.3.3.s.3.3.s.s.,.Z l Z D n n n l n n n n n l l n n n n l Z s.s.3.Z l ,.v.v.F.F.l n D Z n n l * ",
"s.v.D Z D n D D <.v.Z g n Z Z n Z Z D Z Z Z Z Z ,.v.v.U.T.T.T.T.U.T.T.T.R.R.v.U.R.R.v.v.U.v.v.R.T.v.v.U.v.v.U.U.U.U.T.T.T.R.v.p ",
"s.T.v.v.v.3.v.v.v.T.v.v.v.v.,.D s.v.v.v.v.v.v.,.D v.T.T.T.T.T.T.R.v.T.v.T.T.T.T.T.T.s.v.v.s.s.T.T.T.3.s.D ,.<.,.T.T.T.T.T.v.R.- ",
",.s.s.s.s.n l n z n n l l n z n n n n n D ,.T.,.3.R.T.T.T.s.3.s.s.s.D n n n Z Z Z Z n v.U.I.D s.v.s.,.g a a a a s.T.T.T.s.s.v.- ",
"D ,.s.,.D D D D D D ,.Z ,.D D D D D D ,.v.T.s.,.,.D D D s.,.D ,.,.n D D D ,.v.T.v.T.3.I.U.U.T.T.s.,.D ,.Z D ,.,.D D ,.3.,.Z ,.- ",
",.v.v.U.U.U.U.R.T.R.R.v.v.T.T.R.v.v.T.T.v.T.T.T.y.D D ,.,.s.3.s.,.,.T.T.T.T.T.T.v.s.y.s.3.s.s.T.v.T.v.R.v.R.v.v.y.D D y.,.s.3.- ",
"Z v.U.U.U.U.U.U.v.T.v.v.v.v.T.v.y.v.T.v.s.T.T.T.,.D Z ,.D D D D D ,.s.T.....T.s.n.y.N D D D D n.T.v.v.s.v.v.v.s.D D D D D D D * ",
"p 3 <.<.J <.<.J z a g p g a a : : 3 D 3 > D D D 3 a a p a : a ; : a : a : : : : a : a a : : ; x a a a a g a : : p a g p : a p & ",
"* = * * = * * * * * * * * * * * * * * * * * * * * * * * * * * * * * * * * * * * * * * * * * * * * * * * * * * * = * * * * * * @ ",
"& * & * * * * * * * * * * * * * * * * * * * * * * * * * * * * * * * * & * * * * * & * * * & * * * * * * * * * * * * * * * * * @ ",
"- * * * * = * = = = = = * * * * * = = = = = = = * * & * = = = = - - = * * * * * - = = = = = = * * * * * = = = = = = * * * * * $ ",
"U ; & * = > > ] Q U Q Q ; * * * , U 8 .._ ] Q ..; * * - 3 > U 5 e.3.e > * & * : ..3.e.> 5 5 | = * * = > > 3.U U ..3.; * * * 3 - ",
"..; * * - > 3 3.[ [ U.] : * * * , | J c.[ [ Q ..= * * = u 3 3.e e.U.J > * * * > s.3.e.3 u [ [ = * * = l 3 e.U.v.v.[ ; - * * 1 ; ",
"| ; * * * : g ,...T.v.s.: * & * , ..U T.R.P.U.T = * * - U n v.Z v.v.e : * * * : e ,.v.Z u [ ..; * * - s l U Q T.T.s.; * & * 3 ; ",
"y.; * * = , x D 3.T.s.s.3 * * * , U U ,.3.U.I.,.= * * = E 8 u ,.T.T.Z : & * * > 3 y.T...[ T.I = * * * l l Z s.U.....g * * * 3 ; ",
"..; * * = 1 x D s.v.T.T.e * * * , | <.,.3.U.e.e ; * * = X.8 u ..T.T.n ; * * * > 3 U T.T.T.[ _ = * * = e n Z v.v.T.T.3 * * * 1 - ",
"y.; * * = Z z D s.,.y.T.3 * * & , y.,.,.3.U.F.<.= * * = X.T.u ..T.T.u , * * & , 3 D T.T.T.T.Q ; * * * Z l Z s.s...T.3 * & * 5 ; ",
"y.; * & * z N D s.v.D ..e * * * , U ,.,.0.U.e.e = * * = X.T.u ..T.T.[ 5 * * * > ,.g ..| T.T.e = * * * Z Z <.s.v.N T.3 * * * 8 - ",
"Q ; * * * n Z ,...T.u | 5 * * * > Q Z ,.,.I.,.e ; & * = ..e.l s.T.s.T.3 * & * 5 ,.g s.l ,.v.J = * * - l <.,.v.v.u | , * * * 5 ; ",
"T = * * * z Z s.T.T.3 ..5 * * * : <.g ,.,.,.3.> ; * * = ..s.g s.T.D T.3 * * * , ,.g v.l D v.] ; * & * Z Z v.T.T.3 ..5 * * * , = ",
"> = * & * z n v.T.T.8 Y.5 * & * ; J Z s.v.g ,.<.= * * = ..s.D s.T.N T., * * * 3 s.n v.l 1 u X.= * * * l Z v.R.v.N T.5 * * * ; * ",
"> ; * * - n s.T.T.T.8 Y.8 * * * ; ] D 3.,.a ,.e.= * * - e y.s.s.n.n D g * * * 3 v.Z v.l 3 e ..= * & * A 3.T.R.v.D T., * * = ; = ",
"3 ; * * * g T.T.T.s.n v.8 * * * ; ..u ..Z g g U ; * * = u ,.T.T.T.n ,.3 * * * , T.D s.n Z Z ..; * * - 3 T.T.T.y.Z T.3 * * * ; - ",
"> ; * * = l T.T.T.D n v.8 * * * : Q e ..Z D D ..; * & = D ,.T.T.T.D T.3 * * * , T.D ,.Z Z Z ..= * * * Z T.T.T.N n T.n * * * : = ",
"> ; * * - g v.3.[ <.n v.8 * * & ; 3.D s.Z Z D s.; * * = e y.v.v.T.,.s.3 * * * , T.D Z Z Z ,.s.; * * * n s.s.T.Z n T.3 * * * ; = ",
"> ; * * * n s.,.R.Z 3 U.5 * * * : Q Z s.Z ,.n s.= * * = e ,.,.v.T.s.D 3 * & * 5 v.Z ,.Z ,.v.v.= * & - 3 3.,.T.n n T.3 * & * : = ",
"> ; * & * > s.Z T.u n v.e * * * ; ..D s.Z Z 3.T.; * * = 8 3 Z T...u o.1 * * * , T.| D ,.U T...; * * * n 3.D T.Z 1 T.> * * * ; = ",
"> : * * = > s.Z v.D l v.e * * * ; Q D ,.Z D s.v.; & * = u , Z s.T...| 5 * * * , T.T.,.,.s.T...; * * * Z s.D v.n 3 [ 5 * * * ; = ",
"> = * & * Z 3.Z D D ,.v.e * * * ; U e n Z ,.3.v.; & * = ..n.N s.n.D [ 1 * * * 5 v.U.s.3.R.R.e.= * * - l s.Z Z Z | T., * * * : * ",
"J ; * * = > n ,.,.v.s.s.e * & * > Q u ,.,.v.s.J ; * * = ..D D s.T.s.u , * * & > ,.3.v.v.U.U.J * * * - Z n Z s.s.s.s.> * * * , = ",
"T ; * * - D a ,.| T.T.T.5 * * * > 1.<.,.3.R.3.J = * * = s.Z Z s.T.T.n ; * * * > > ,.U.U.U.U.Q ; * & ; 3 g D s.v.v.R.3 * * * > = ",
"..= * & - n z D | | ..T.5 * & * > ,.,.,.3.U.v.J = * * = s.v.,.s.T.T.,.3 * * & > 3 Z v.T.R.[ ..= * * = 3 n ,.v.,.s.R.n * * * 3 ; ",
"..; * * * l Z D | ..u T.e * * * > ,.,.,.3.U.e.<.; * * * s.v.Z s.T.T.T.3 * * * , <.g s.,.[ T.U = * * - 3 Z D s.v.D v.3 * * * 3 ; ",
"Q ; * * - l D 3.s.T.u E 5 * * & : ,.n ,.,.I.3.e = * * = s.s.g M.T.y.s.3 * * * > ,.g e.n G T.U = * * - n Z 3.v.v.Z s.3 * * * 3 ; ",
"3.; * * = z n v.U.U.Z s.5 * * * > ,.g D ,.D ,.e ; * * * & % $ $ % $ % & * * * , ,.a s.n u o.X.; * * - l Z U.U.I.3 .., * * * > = ",
"> ; * & * z D v.U.v.<.v.5 * * * ; e Z s.s.> ,.,.; * & # O O X X X X X o $ * * , s.> v.l 1 u X.= * % * l Z v.U.U.D T.3 * * * ; & ",
"> ; * * * n [ R.U.v.Z v.8 = * * ; e.Z v.u : I o.= * $ X X O O O X   . . o * * 5 U.e s.n 1 u | = * * * Z e.T.R.v.Z T.5 * * * : = ",
"5 = * * * n T.R.v.s.3 U.5 * & * ; Q Z s.3 > 5 E = * % X @ @ + X O       o & & , v.Z s.n N e ..= * * * Z v.R.T.Q Z T., * * = ; = ",
"> ; * * * > [ R.T.Z n U.e * * * ; [ D s.Z e D ,.% @ @ O @ @ + + X     X O + + > e.Z Z Z u e y.; * * * e T.T.T.Z n T.n * * & : = ",
"5 ; * * * > v...R.Z l v.e * * & ; [ D s.Z <.g * + + + O @ $ $ $ + O X X O o O $ : Z Z ,.u ..s.= * * * n s.s.T.n n T.3 * * * ; = ",
"> ; * * = g s.,.T.e n v.3 * * * ; ..U s.Z D = O O O X O @ $ $ $ $ O X X O $ + O $ Z Z Z u T.X.= * & * Z s.D T.n n T.3 * * * : = ",
"3 ; * * * n s.Z R.Z n T.u * * * ; [ D s.u Z a + @ O O X @ @ @ $ $ $ O O O @ $ + $ e D ,.u T.T.= * * - 3 3.,.T.Z D T.3 * * * ; = ",
"5 = * * * n s.Z s.D n v.5 * * * ; 3.D y.u ; + O O O X X O + + $ @ $ + O @ O X O O % n ,.v.R.[ ; * * * n s.D s.n Z R.3 * * * ; ; ",
"> = * * * z v.D n D ,.v.8 * * * ; ,.n n 3 * O O X O O $ O O O + + + O + $ O + o X + 3 ,.T.T...= * * - n 3.,.D Z ,.v.3 * & * ; * ",
": = & * = z T.v.D D ..T.8 * * * ; e n 3.$   O   . X o & $ $ $ $ $ $ $ & & O + + O O - ,.T.v.v.; * * * n v.v.D Z s.v., * * * ; * ",
"> ; * * * n R.v.n u ..T.: * * * ; J l s.%   O . . X @ = D ,.3 ,.n.z D 1 & O O + @ O O l s.s.v.; * * * Z T.v.D Z v.v.: * & * : = ",
"5 ; * * - g v.[ u u s.v.: * * * ; [ D s.% X X . . # * = s.T.U s.T.1 ,.3 * & + + + . . > u | ..; * & - l R.[ D D s.s.p * * * : = ",
"5 = * * * z v.U.D D s.v.: * * & ; 3.D ,.% O o . . # * = v.v.,.s.y.D ,.3 * & + O + . . : u | ..= * * * Z v.v.,.D s.v.; * * * ; = ",
"> = * * = g D v.T.v.D T.> * * * ; U D s.% O + . . $ * = ,.s.,.3.s.D ,.> * * O X   . . - u u | = * * - l ,.v.v.s.Z R.3 * * * : * ",
"> ; * & * n v.T.T.s.Z v.e * * * ; Q D 3.% . X . . $ * - Z ,.,.s.v.n 3 > * & o . . . . - n Z ..; * * * Z s.R.R.s.Z v.3 * * * ; = ",
"> ; & * * > R.T.v.,.3 R.3 * * * ; v.,.s.% . . . . $ * ; u ..Z s.v.D v.3 * * o . . . . ; D D s.= * * - l U.v.T.Z Z R.3 * * & : = ",
"5 ; * * * > v.s.v.Z n v.e * * * ; 3.Z 3.% . .     X + = u u ,.s.T.D [ 3 & + .   . . X : u u s.; * & * n v.T.T.n n v.3 * * * ; = ",
"5 ; * * = g v.,.R.<.3 v.5 * * & ; v.,.s.; $ O   o X @ = e u n s.T.T.u 1 & O . . . O & n u T.o.= * & * Z s.<.v.Z n T., * * * : = ",
"5 ; * * * > s.D T.e 3 T.5 * * * ; 3.Z s.D ; O O + o + * ; , , s.o.u 1 ; $ O . . . + 3 ,.U T.o.= * * * A s.,.v.Z n T.> * * * ; = ",
"> = * * - l v.D v.<.n v.e * * * : Q U s.u - + O O + @ $ O * a <.| 3 % O O O X X O $ 3 ,.e.U...; * * - n s.,.T.n Z T.3 * * * ; - ",
"> = * * * n s.Z D e Z R.e * * * ; J n D u e ; O . O + @ O + + @ @ @ O   O @ O O $ D ,.3.U.U...= * * * Z y.D D n D T.n * * * : * ",
"> = * * * l T.s.Z D s.v.5 * & * ; e Z ,.| 1 u ; + O + @ + O O . O   + + X O O % n v.,.0.U.U.s.; * & * n s.s.D N v.T.3 * * * ; & ",
"5 = * * * l R.v.Z D s.v.3 * * * ; Z g s...n T...$ O O + @ O . . . O + + O X + p v.v.,.y.s.v.v.; * * - Z v.v.D N v.T.> & * * ; = ",
"> ; * * * g v.R.Z D s.s.; * * * ; 3.Z s.v.D v.e.p $ O O O . . .   O O O O + % l 0.s.,.y.<.s.v.= * * * Z T.n.N D v.s.p * * * ; = ",
"5 ; * & - x R.v.Z Z s.s.: * * * ; 3.D y.v.D 3.U p * & % O O O O X O O @ * % * > -.<.,.3.,.s.v.= & * - l T.n.D D v.v.; * * * : - ",
"> = * * * x ,.s.s.s.,.T.1 * * * ; ,.S -.s.n ,.<.= * * - a , ; : : - x - * * * 3 M.x M.N Z Z M.- * * * Z -.I.s.s.,.v.g * * * ; * ",
"> ; & * * z ,.I.v.s.N n.N * & * ; 0.S M.-.a -.3.= * * - D y.s.s.v.N N x & * * 3 M.N M.n N Z M.- * * - n -.M.I.M.S I.n & * * : - "
};
