/* XPM */
static char *_921d327a8a041eca2b06b83f85ca4f8RAJkz0I1w3Lud4yA[] = {
/* columns rows colors chars-per-pixel */
"64 64 2 1 ",
"  c #FF00DC",
". c black",
/* pixels */
"                ................                ................",
"                ................                ................",
"                ................                ................",
"                ................                ................",
"                ................                ................",
"                ................                ................",
"                ................                ................",
"                ................                ................",
"                ................                ................",
"                ................                ................",
"                ................                ................",
"                ................                ................",
"                ................                ................",
"                ................                ................",
"                ................                ................",
"                ................                ................",
"................                ................                ",
"................                ................                ",
"................                ................                ",
"................                ................                ",
"................                ................                ",
"................                ................                ",
"................                ................                ",
"................                ................                ",
"................                ................                ",
"................                ................                ",
"................                ................                ",
"................                ................                ",
"................                ................                ",
"................                ................                ",
"................                ................                ",
"................                ................                ",
"                ................                ................",
"                ................                ................",
"                ................                ................",
"                ................                ................",
"                ................                ................",
"                ................                ................",
"                ................                ................",
"                ................                ................",
"                ................                ................",
"                ................                ................",
"                ................                ................",
"                ................                ................",
"                ................                ................",
"                ................                ................",
"                ................                ................",
"                ................                ................",
"................                ................                ",
"................                ................                ",
"................                ................                ",
"................                ................                ",
"................                ................                ",
"................                ................                ",
"................                ................                ",
"................                ................                ",
"................                ................                ",
"................                ................                ",
"................                ................                ",
"................                ................                ",
"................                ................                ",
"................                ................                ",
"................                ................                ",
"................                ................                "
};
