/* XPM */
static char *miguel[] = {
/* columns rows colors chars-per-pixel */
"64 64 255 2 ",
"   c None",
".  c #3A0B01",
"X  c #3B1508",
"o  c #2D1513",
"O  c #3D1B17",
"+  c #471807",
"@  c #561D0E",
"#  c #481D16",
"$  c #601E06",
"%  c #48220F",
"&  c #5D200B",
"*  c #4B2518",
"=  c #56291B",
"-  c #59301E",
";  c #682A15",
":  c #762F19",
">  c #69311D",
",  c #793419",
"<  c #4F2620",
"1  c #582B22",
"2  c #41322F",
"3  c #563428",
"4  c #462D30",
"5  c #483737",
"6  c #593D38",
"7  c #673927",
"8  c #773A27",
"9  c #7D3C23",
"0  c #613B30",
"q  c #5F443D",
"w  c #6D412D",
"e  c #73432E",
"r  c #7C432C",
"t  c #7B492B",
"y  c #6A4336",
"u  c #744633",
"i  c #7A4736",
"p  c #7C4B34",
"a  c #7D533D",
"s  c #574341",
"d  c #624745",
"f  c #734E42",
"g  c #6D514D",
"h  c #795448",
"j  c #6D5853",
"k  c #775B55",
"l  c #75645C",
"z  c #852817",
"x  c #922A1F",
"c  c #883D1B",
"v  c #853D27",
"b  c #89441B",
"n  c #91431C",
"m  c #8B4223",
"M  c #85462A",
"N  c #8B442C",
"B  c #8B4B2D",
"V  c #964728",
"C  c #934B2B",
"Z  c #87512F",
"A  c #97522D",
"S  c #834432",
"D  c #844C34",
"F  c #8C4C33",
"G  c #894A36",
"H  c #974936",
"J  c #944C34",
"K  c #8C5336",
"L  c #83533A",
"P  c #895539",
"I  c #945333",
"U  c #985937",
"Y  c #94553C",
"T  c #9B543C",
"R  c #9B5A3C",
"E  c #A04A2F",
"W  c #A7532D",
"Q  c #B05C2E",
"!  c #A64C37",
"~  c #A65837",
"^  c #A35D3C",
"/  c #AB5D3C",
"(  c #B25B3A",
")  c #9D613A",
"_  c #A2623D",
"`  c #AB623E",
"'  c #AF683E",
"]  c #B3613E",
"[  c #C8582B",
"{  c #D35A3B",
"}  c #C3673C",
"|  c #8A4B42",
" . c #984241",
".. c #8B5A43",
"X. c #895945",
"o. c #965945",
"O. c #935C44",
"+. c #9C5C42",
"@. c #A35D43",
"#. c #A85945",
"$. c #AA5C45",
"%. c #B65D47",
"&. c #8D614B",
"*. c #946145",
"=. c #9D6344",
"-. c #94654C",
";. c #9C654B",
":. c #8B6656",
">. c #976A57",
",. c #8F705E",
"<. c #9A735C",
"1. c #A36443",
"2. c #AC6442",
"3. c #AB6943",
"4. c #A4654A",
"5. c #AA654A",
"6. c #A56A49",
"7. c #AC6B4C",
"8. c #B46543",
"9. c #B36B44",
"0. c #BA6845",
"q. c #B36D4B",
"w. c #BB6D4B",
"e. c #AB724B",
"r. c #B3724B",
"t. c #B77648",
"y. c #BD724B",
"u. c #A86A52",
"i. c #B36D54",
"p. c #BC6E52",
"a. c #BB6858",
"s. c #A77558",
"d. c #BC7253",
"f. c #B7775A",
"g. c #8E6960",
"h. c #976E62",
"j. c #9B7465",
"k. c #A47865",
"l. c #AA7B64",
"z. c #B77A65",
"x. c #C36C45",
"c. c #C26E4A",
"v. c #C4734C",
"b. c #CA754C",
"n. c #C9784B",
"m. c #D4774C",
"M. c #C76C54",
"N. c #C47452",
"B. c #CA7552",
"V. c #C57953",
"C. c #CC7A53",
"Z. c #C77B5B",
"A. c #D17C54",
"S. c #D67E58",
"D. c #E17C5A",
"F. c #C47C65",
"G. c #D47B65",
"H. c #B9814B",
"J. c #BC8656",
"K. c #AC8569",
"L. c #B98569",
"P. c #BA9060",
"I. c #AE8A77",
"U. c #BA8B78",
"Y. c #B89170",
"T. c #C2804E",
"R. c #D4814F",
"E. c #C78756",
"W. c #CC845C",
"Q. c #D58155",
"!. c #DA8457",
"~. c #D28857",
"^. c #D5825B",
"/. c #DA855B",
"(. c #D28B5B",
"). c #DD8A5C",
"_. c #CA935A",
"`. c #D2965E",
"'. c #E38659",
"]. c #E28D5E",
"[. c #E3915F",
"{. c #D3A45E",
"}. c #C38463",
"|. c #C98867",
" X c #C48B6D",
".X c #D28664",
"XX c #DC8C62",
"oX c #D68A68",
"OX c #CC9866",
"+X c #D49363",
"@X c #DB9364",
"#X c #D39C64",
"$X c #DC946B",
"%X c #D5986B",
"&X c #DB9B6C",
"*X c #C48B73",
"=X c #D98C72",
"-X c #C99478",
";X c #D39573",
":X c #D79977",
">X c #DD9B73",
",X c #DB9C7A",
"<X c #E28D64",
"1X c #E38C68",
"2X c #E49263",
"3X c #E99965",
"4X c #E3956C",
"5X c #EA966C",
"6X c #E79968",
"7X c #EA9B6C",
"8X c #F19F6F",
"9X c #E78B78",
"0X c #E59676",
"qX c #E49C74",
"wX c #EB9C73",
"eX c #E49D7A",
"rX c #F09F71",
"tX c #CCA267",
"yX c #D3A464",
"uX c #D7A66B",
"iX c #DAAC6C",
"pX c #CAA77A",
"aX c #D6A874",
"sX c #DDA27C",
"dX c #DDB373",
"fX c #DBB778",
"gX c #EBA16E",
"hX c #E4A273",
"jX c #ECA374",
"kX c #E4A47C",
"lX c #ECA47B",
"zX c #E7A97C",
"xX c #F1A473",
"cX c #F4A97D",
"vX c #E2BA75",
"bX c #E3B479",
"nX c #B69887",
"mX c #C99B86",
"MX c #D59D84",
"NX c #E49989",
"BX c #F39A88",
"VX c #DBA385",
"CX c #D8BA88",
"ZX c #DBAD95",
"AX c #CCBA96",
"SX c #D4BD95",
"DX c #E7A581",
"FX c #EBAA83",
"GX c #F6AB82",
"HX c #E9BA84",
"JX c #F6BF8D",
"KX c #F0AF9B",
"LX c #F9BB93",
"PX c #FBCB94",
"IX c #D1C2A1",
/* pixels */
"                                                                                                                                ",
"                                                                                                                                ",
"                                                pXpXpXaXdXuXtXaXaXfXfXCXCXCXSXSXAX                                              ",
"                                              pXtXaXiX{.{.iXiXfXvXvXfXvXdXvXvXfXfXSXIX                                          ",
"                                            mXtX_.tX{.{.iX{.iXdXvXvXvXvXdXvXfXvXdXfXCXAX                                        ",
"                                          Y.P.P._.uX_._.{.{.dXiXdXvXyXdXyXiXiX{.yXdXfXCXAX                                      ",
"                                      K.k.H.H.J.J.H.H._.OX#XtXOX#XtXyXiX{._.#XuXuXtXaXdXCXSX                                    ",
"                                    K.s.e.H.P.J.H.H.E._._._._.H.`.#X#XuX(._.`.#XuXuXuXuXCXHXSX                                  ",
"                                  K.e.e.3.e.t.H.T.H.T.T.E.T.E.`.#X@X#X%X(.(.(.@X&X&X#X#XtXfXCXAX                                ",
"                                <.e.e.e.e.t.t.t.t.y.n.T.R._.`.6X`.@X@X).@X).XX(.W.(.`.#X+X_.pXCXIX                              ",
"                              <.s.e.t.t.t.V.n.C.n.C.C.n.E.R.(.~.@X[.@X].XX2X@X].@X).$X+XW.H.P.VXSX                              ",
"                            <.s.r.t.H.v.V.R.A.W.A.A.C.A.^.^./.XX[.).).[.[.[.2X2X2X@X@XXX$XW.U s.AX                              ",
"                            s.s.r.r.y.N.V.A.A.^.^.^.^.^.^.XX[.).).).].[.[.2X6X3X2X6X4X$X%X%XJ.Z I.                              ",
"                          j.u.e.q.d.v.C.A.A.A.^.^..X/.^.^./.).).].).[.[.[.3X2X3X6XgXqX4X$X$X>X X:.l                             ",
"                        j >.7.e.t.d.v.V.C.Q././././././.).).).~.).).[.[.3X3X3X3X6X7XqXqX0X4X>X%Xz.6                             ",
"                      d >.u.7.r.r.y.N.V.C.Q.Q.^././.).(././.!.).].).[.3X[.3X3XxXxXjXjXwXqXqX>X>X;X&.q                           ",
"                    q h.;.u.r.q.q.y.y.V.C.Q.R.!.Q./././.)./.R.!.!.].[.3X3X7XgXxXgXcXlXjXlXwXqX>X%XL.,.d                         ",
"                    k >.1.7.r.q.q.y.w.V.C.A.Q.^.R.Q.).)././.!.).!.[.].[.3X3XgXxXjXcXjXlXlXlXeXhX>X Xk.k                         ",
"                    &.;.4.6.q.9.9.w.v.v.C.C.A.A.~.!.).).'.~.!.!.!.[.[.2X3XgXxXxXjXjXjXlXcXzXlX$X>X|.z.h.                        ",
"                  s O.;.;.3.3.' 9.y.y.v.n.C.A.A.R.!.!.!.).).).!.).3X[.3XgXgX8XgXxXjXlXlXlXlXkXeX>X;XL.k.j                       ",
"                  q *.;._ 3.3.3.9.9.w.w.n.C.C.A.A.Q.Q.).!.)././.<X5X7X3XgXxXxXjXgXxXgXgXlXlXDXsXeX;XL.L.g.                      ",
"                  f P =.1.3.3.' 9.9.9.y.v.n.C.C.A.~././.).].).XX2X7X7X7X7XgX7X7XgXgXgXgXjXzXlXkXkX;X*Xz.j.                      ",
"                s f O.=.1.3.` ' 8.9.0.0.y.v.C.C.A.S./.).).1X).^.<X5X4XwX4X7XhX7X7X6XgXgXjXlXeXDXVX:XU.K.h.                      ",
"                5 f *.=.1.3.3.9.r.w.r.q.r.y.V.V.n.A.^.^./.1X/.^.XX^.Z.d.+._ 4.6.7.}.J.;X,XeXkXkXFX,XL.l.j.j                     ",
"                2 f -.=.=.4.4.=.O.| i i w D Y +.2.w.C.B.^.1X1XC.c.2.F - - 7 - = 7 e D o.s. XVX,XDXVX-Xl.k.d                     ",
"                5 h ;.O.+.=.i 7 - = * * O * 1 - F $.y.v.A.1X1XN./ J r ; 7 - = * = 7 D &.o.O. X:XeXVX-Xk.j.g                     ",
"                2 f -.*.p 7 1 1 < < # < * < = - 8 J ` 8.A.1X0XA.~ A +.1.@.T T 6.5.u.i.*X*Xf.s. X:XsXMX>.h.l                     ",
"                5 q &.X.w 7 i 8 r -.;.;.Y G S S 9 N A ( C.<XwX4XW.N.w.` ` ~ ~ _ 5.i.f. XF.|.}. X;XVXMXs.g.k                     ",
"                  3 :.L p G K Y T | N N N 8 r S : , c W v./.5XgXXXv./ 9 $ # X o 4 s X = ; C |.E.|.>XMXs.-.h I.U.                ",
"                  3 :.L D S p > * # # O O O # @ ; ; c W n.XX7X7X<XC.` $ + * % = u i i | K b H.W.+X:X:XL.X.X.z.NXNX              ",
"                k 0 ..D r r + . X * * < 1 * % X & : V ( C.).5XrX2X~.y.H N v H T 8.p.Z.d.|..XXX+XW.+XsX,Xl.@..X/.} ZX            ",
"              :.T u ..D Z B m A C ~ E E A v , , V A ~ 8.c.S.1X5XrX7XXXQ.v.8.~ W W Q x.m./.).6XhXlXhX>X,X;XeXGX1X[ D.            ",
"              g.v X.O.P U ) ) V n n n c c n m V ~ / ^ $.x.S.1XwXxXrX7XXX).^.C.c.} } b.!.].6X7XhXjXzXzXkX+XGXGX].[ D.            ",
"              h.z ..O.O.) ' 9.x.v.v.v.} 0.] ~ / ~ / 2.` 0.A.1X5X8X8XrX7X[.].).m.m.!.].5X5X5XjXFXzXzXzXsX;XwXGX].{ ,X            ",
"              ,.x G +.=._ _ w.v.n.A.A.b.b.x.( ` ` ` / / c.D.1XrX7X7X7X3X<X'.'.'.D.'.<X5XjXcXGXFXzXzXFXDX%Xm.xX'.BX              ",
"                 .S +.;._ 3.p.y.C.A.A.C.b.] ~ W U / ` 8.N.^.1XrXcXrX5X[.R.b.m.D.Q./.5XwXlXlXFXFXFXFXzXsX%Xc.jXD.                ",
"                  | ;.;.6.q.p.d.B.C.C.m.v.W C V ' ' ` w.N./.1XwXcXlXwX7X8X'.x.} x.A.1XwXeXGXFXzXFXzXFXzX%X8.9X1X                ",
"                  k 4.;.1.q.q.p.B.Z.B.b.} V V ` w.3.$.w.B.S.<XwXGXGXlXGXcX5X!.( ( } G.1XwXDXFXDXzXzXzXzX;X%XlX0X                ",
"                    ;.;.1.$.] %.x.c.c.] n V C 2.2.` ~ / w.M.S.1XwXjXlXlXwX.XG.Z.%.H ( c./.4XeXDXhXhXkXzX>XeXeX                  ",
"                    >.4.@.^ / 8.0.0.E n m , 9 9 F +.@.2.w.c.n./.=Xd.I Y 7.z.F.|.z.#.H V p.Z.0XeXkX>XkXaX,X>XeX                  ",
"                    *.=._ @.2.8.0.V m , 9 9 9 > ; ; ; , i.a.N.}.5.I Y 4.u.z.z.z.F.F.+.F V w.oXqXhX>XkXzX:XeXFX                  ",
"                    6.1._ ^ 2.8., 9 r 8 8 8 8 > 8 v S J | , N H T $.5.F.F.F.=XF.F.z.f.f.5.m V.@XhX+XaXsXMXKX                    ",
"                    =.6.1.^ 7.8.; M D G r S G S J  .T #.$.#.%.%.p.p.Z.9X=X9X=X=XF.f.i.f.Z.C W.@X&X+XaXsXmX                      ",
"                    -.=.I ) ` ^ , Y I S S S | V H H E H V E ! ( %.8.] p.p.f.p.G ; & 9 R V.A oX&X&X&X&XsXnX                      ",
"                      ;.) I i.e.b U F 8 @ . @ 9 U C ! ~ v.C.c.oXlX$XrXhXLXFXKXG > v C ^ r.T.@XqX%XsXsXVX                        ",
"                      *.=.U 3.r.e.I B B : @ @ ..r.3.W.T.hXzXbXHXPXHXPXJXJXzXV.~ Z.N.` ` y.E.$X%X%XOX,XmX                        ",
"                      X.*.P ) 3.' ) ) I B S : , M N r.r.aXFXzXbXPXaX(.M.M.G.M.G.1X^.V.' t.E.&X>X%X;XmX                          ",
"                        ..) I 1.3._ A A C A v v  .! H V A / ^ _ ] %.M.9X9XG.G.5X4X.XW.y.' E.$X%X%X:XI.                          ",
"                          ..Z K 3._ B C B N T T H V H ! %.%.%.%.M.G.G.=X9X0XeX0X1X.XV.W.W.|. XP.*XnX                            ",
"                            a Z P ) K Z B F J U T 5.#.#.$.$.%.a.M.G.G.oX=X0XeX$X.Xd.J.}. XP.}.L.K.                              ",
"                            a p p P Z r B 9 N I R R T T T Y o.o.u.i.d.Z..XoX$X.Xd.d.z.}.|.P.L.K.I.                              ",
"                              k u P Z t r M 9 B T F B N G | r S o.o.u.a.|..X.Xq.q.}. X XP.K.L.K.                                ",
"                                h u e u p K F B C T ^ T T T o.;.#.5.f.Z..X.XZ.|.f.L. Xl.l.l.                                    ",
"                                  e w u u p t B R ^ ^ @.T @.4.5.i.i.F.G.=XoX}.|.F.L.U.l.k.                                      ",
"                                    e u 7 e e e K Y 4.@.@.u.i.a.i.d.f..X.X*X*Xz.s.L.j.k.                                        ",
"                                      w w - 0 e u D K Y +.1.4.f.7.7.f.|.}. Xf.s.K.>.j.                                          ",
"                                          u 7 y w i p D K Y +.;.Y +.f.J.f.s.-.h.>.,.                                            ",
"                                            w w 7 7 u u G P K P ..;.-.>.&.X.a ,.<.                                              ",
"                                              w y 0 7 7 7 a p ..X...X.a a X.>.k.                                                ",
"                                                e a i p e p L p L ....-.>.l.                                                    ",
"                                                    t t Z p L L *.*.*.                                                          ",
"                                                                                                                                ",
"                                                                                                                                ",
"                                                                                                                                "
};
