/* XPM */
static char *_814d80613a04c1cb3dc4c40a181e807X8BUpDv8BobqtMB4[] = {
/* columns rows colors chars-per-pixel */
"64 64 162 2 ",
"   c None",
".  c #060606",
"X  c #090706",
"o  c #090807",
"O  c #090708",
"+  c #0C0B0B",
"@  c #120E0D",
"#  c #14110F",
"$  c #1B110F",
"%  c #120F10",
"&  c #141212",
"*  c #1A1514",
"=  c #1D1916",
"-  c #1B1718",
";  c #1D1A1A",
":  c #221615",
">  c #231A16",
",  c #291B16",
"<  c #241C1A",
"1  c #2B1D1B",
"2  c #341D1C",
"3  c #24201B",
"4  c #2F201C",
"5  c #2B211D",
"6  c #30211C",
"7  c #30221E",
"8  c #32221E",
"9  c #32221F",
"0  c #30271E",
"q  c #33231F",
"w  c #3C221F",
"e  c #261F20",
"r  c #371F22",
"t  c #2C2620",
"y  c #2D2421",
"u  c #2F2821",
"i  c #292925",
"p  c #302322",
"a  c #362621",
"s  c #342522",
"d  c #3B2524",
"f  c #342B21",
"g  c #372D22",
"h  c #372825",
"j  c #352925",
"k  c #392823",
"l  c #3A2923",
"z  c #3B2B27",
"x  c #3C2A25",
"c  c #3B2F24",
"v  c #3F2C27",
"b  c #3B2B26",
"n  c #372D29",
"m  c #3B2D2A",
"M  c #3C332B",
"N  c #3D322C",
"B  c #332F35",
"V  c #432522",
"C  c #422C27",
"Z  c #402C28",
"A  c #422E29",
"S  c #412E2A",
"D  c #442F2B",
"F  c #422D2A",
"G  c #4D2E2C",
"H  c #43312B",
"J  c #40362A",
"K  c #46312C",
"L  c #44332D",
"P  c #48342E",
"I  c #4A342F",
"U  c #49342E",
"Y  c #443631",
"T  c #4A3530",
"R  c #4A3631",
"E  c #4D3731",
"W  c #4A3631",
"Q  c #413830",
"!  c #443B33",
"~  c #433B35",
"^  c #453933",
"/  c #4D3933",
"(  c #4E3933",
")  c #4C3A34",
"_  c #45393B",
"`  c #4F3C39",
"'  c #533433",
"]  c #513B35",
"[  c #533B36",
"{  c #533C37",
"}  c #563C37",
"|  c #513B36",
" . c #5A3F37",
".. c #553F39",
"X. c #533E3A",
"o. c #583E39",
"O. c #583F3A",
"+. c #5B3D3C",
"@. c #613E3C",
"#. c #4E4031",
"$. c #4E4138",
"%. c #5A4037",
"&. c #54403A",
"*. c #57403A",
"=. c #55423C",
"-. c #59403B",
";. c #5E4238",
":. c #5C413A",
">. c #59423D",
",. c #5D423C",
"<. c #5E433D",
"1. c #5C453F",
"2. c #5E453F",
"3. c #5D473F",
"4. c #5F473F",
"5. c #5A433D",
"6. c #60433A",
"7. c #60443D",
"8. c #61473D",
"9. c #62463D",
"0. c #61453E",
"q. c #61473E",
"w. c #61453E",
"e. c #62483F",
"r. c #544441",
"t. c #5B4641",
"y. c #534C42",
"u. c #5D4944",
"i. c #5F4B48",
"p. c #634543",
"a. c #6A4442",
"s. c #624940",
"d. c #634A44",
"f. c #694B45",
"g. c #634D49",
"h. c #6B4E4A",
"j. c #734D4C",
"k. c #625045",
"l. c #6B5047",
"z. c #65514B",
"x. c #6B524D",
"c. c #73544D",
"v. c #78544E",
"b. c #76584F",
"n. c #6D5651",
"m. c #6E5954",
"M. c #735552",
"N. c #7A5552",
"B. c #735A55",
"V. c #7A5B55",
"C. c #765E59",
"Z. c #7A5D5A",
"A. c #7A6257",
"S. c #76615C",
"D. c #7C615D",
"F. c #7E6561",
"G. c #81645E",
"H. c #836662",
"J. c #856964",
"K. c #876B68",
"L. c #94756C",
"P. c #967E72",
/* pixels */
"                                                                                                                                ",
"                                                                                                                                ",
"                                                                        3 - = = = 3 = * * *                                     ",
"                                                                  3 i ; & & & @ & - * - * # = 3 3 3                             ",
"                                                          i ; 3 ; ; ; ; ; & & % * * & * * * & & * * *                           ",
"                                                    3 ; ; ; ; ; ; - ; - & ; % % & @ & @ % % % @ & # @ * > = 0                   ",
"                                                  - ; ; ; & - - - & ; - - - % & @ @ o o o + @ @ + @ + # # * 3 u Q               ",
"                                              & & - & & & & % % & & = ; = * & & @ @ + + o O + o + + @ + + # = 5 M ~             ",
"                                            & & & & & & + % % % & + & - * % * $ $ * : : * @ + o o o + @ + + # > f !             ",
"                                        & & % % & & + % + + % + % + + @ @ * : > 8 d Z Z x 8 > $ @ @ o o + + # > 0 J             ",
"                                      & % % % % + & % + % + + % % % % % * 1 a Z I { >.o.{ E v 8 , $ $ @ + @ @ # 3 g #.          ",
"                                  & % + + % + + + + + + % + + % % % & = 1 z W [ o.4.7.7.,.*.W H x q , $ @ o X + $ 3 c 3         ",
"                                i + + + + + % + + + + + + + + % % % # > y H { ,.,.7.e.8.7.4.&.( U A w 0 : @ X X + # > 3         ",
"                                & + + & + + + + + + + + % % + % & & * < h ( +.0.6.,.6.e.e.4.4...] I H C 6 * X X o # $ , 3       ",
"                                % + + + + + + . + + + & % & % & - & = 5 W t.d.f.f.8.8.e.s.e.4.%.} ] E U w 6 $ X + @ # = ,       ",
"                              + + + + + + + + . + + + & % - % & * & , Y d.n.n.h.f.f.e.e.e.e.e.4.;.%.] E J w : @ o @ @ & <       ",
"                            ; + + + . . . . . . O + + + % & % & * < F i.j.n.x.h.h.u.| D / { 4.s.e.e.%.E U C 0 $ o @ @ *         ",
"                            & + + . . . . . . . + + + % % & - - - F g.j.M.n.p.` D z e < = < y m / ;.;.] E P c : o o @ *         ",
"                            @ + + + . . . . . + + % + % % & & & r p.M.M.n.g.i.+.r.{ _ m y * & = > b ` &.] E H 5 @ # <           ",
"                            + + + + . . . . + O + + + + % & % & _ j.Z.M.M.h.g.i.u.r.=.` W m 1 = * > g E ` ] / b @               ",
"                            + + + . X X O + . + O + + % % - $ B M.Z.Z.Z.m.g.t.{ F r e < , r h 8 , : 1 H I / / L <               ",
"                            + + O . . X + . + O + O % % & % m j.Z.Z.F.F.C.g.` r : e B % X + : a 8 s z P v h 5 >                 ",
"                            + O . . X X + . . + + % % & & - +.B.N.H.H.F.Z.n.g.p.{ W _ e # * $ p F { u.p.H < = @                 ",
"                          - O O O O o + = > # * - - & % % r i.Z.H.F.K.H.F.Z.Z.M.M.g.>.T k 1 1 L X.g.h.M.l.k 1 = &               ",
"                          + O . . O + , V ' v s y 1 % % - r n.Z.Z.K.H.K.H.H.Z.Z.Z.M.g.>.T z Z { t.h.v.N.N.A.L n j               ",
"                          + O O . O > d ,.0.,.>.{ _ e % - m B.Z.Z.H.K.K.K.K.K.H.D.B.x.i.X.[ >.p.h.N.N.N.N.G.B.5 n               ",
"                          % + . . O C  .Z.h.a.c.h.h.{ < - r M.Z.N.Z.H.K.K.K.K.H.Z.B.x.f.p.s.h.x.v.N.G.v.N.V.L.u.y               ",
"                          & . . O $ @.a.j.+.D f.m.C.x.h e m M.N.Z.Z.H.H.H.K.K.Z.Z.B.c.x.h.c.c.M.V.V.v.v.v.G.G.P.~               ",
"                          - O O O ; a.a.V 2 r v.F.F.C.B z p.Z.Z.Z.N.Z.H.H.H.H.Z.Z.Z.M.M.c.b.c.c.N.V.N.N.N.M.N.Z.x.              ",
"                          & O O o ; j.a.V ' +.B.H.H.Z.+.r.M.N.G.H.N.H.H.K.H.H.H.D.Z.Z.V.N.N.b.v.j.j.j.+.[ +.p.>.s.              ",
"                          - . . o & N.j.@.M.a.a.Z.F.Z.g.x.B.Z.Z.Z.H.H.H.H.K.H.H.G.D.D.N.V.b.j.h.a.a.G : , d E Z ~               ",
"                          - + + o + g.N.N.Z.M.a.M.Z.C.n.n.M.Z.H.H.H.H.K.H.H.H.H.G.G.G.G.A.b.M.h.p.a.G r d d d 8 /               ",
"                            % + O O r M.Z.G.N.M.h.C.V.n.m.c.V.G.H.H.K.H.K.H.H.H.G.G.G.G.G.b.b.m.x.x.s.=.W z 2 H                 ",
"                              + O O O z f.Z.m.N.B.M.C.m.x.B.D.G.H.H.K.H.H.K.H.K.K.G.G.G.G.A.B.m.x.k.u.>.` z n 5.                ",
"                              + O O + + e +.a.t.,.h.B.M.x.m.D.G.H.K.H.H.K.K.H.H.K.G.G.G.G.A.m.k.z.g.u.r.{ Y W                   ",
"                              + O + + + $ { [ F F u.B.M.m.B.D.G.H.K.H.H.K.K.H.H.K.G.G.G.G.b.k.=.i.{ D Z C F W                   ",
"                              + + + + + < g.g.r.+.x.N.B.B.B.Z.G.G.G.H.G.H.K.H.H.J.H.G.G.D.x.` a s r r r , 2 d                   ",
"                                + O + % y n.B.B.B.m.m.M.B.B.C.G.G.G.H.G.H.H.H.H.H.G.G.G.B.s.] &.r.X.+.' r 2 ,                   ",
"                                & + + + < x.Z.H.Z.Z.M.m.B.B.C.C.N.G.G.G.G.G.H.G.G.D.A.B.x.k.u.z.h.g.X.D r G r                   ",
"                                  + + % < g.S.D.H.G.B.B.M.x.V.B.N.N.G.G.G.G.G.G.D.Z.V.m.x.g.f.k.g.t.T p e r m                   ",
"                                  % + % - g.F.F.G.D.A.m.m.n.c.M.N.M.C.Z.A.D.Z.V.B.V.B.m.x.h.g.g.u.&.Y g f f                     ",
"                                  - % & < i.C.F.H.D.A.n.z.z.z.z.h.h.M.M.V.N.b.V.V.V.B.B.V.x.z.x.k.u.5.) z M                     ",
"                                    - & < i.m.F.J.F.D.C.z.u.u.u.p.i.i.h.x.x.c.c.c.b.B.b.m.m.m.m.m.n.z.u.=./                     ",
"                                      % < i.C.F.J.H.D.S.m.k.u.&._ +.r.+.t.s.s.d.f.x.x.z.z.n.n.n.n.k.k.u.3.k.                    ",
"                                      % - i.m.F.J.F.J.F.S.n.u.=.+.` { E ' ` *.*.&.;.=.t.t.r.r.r.r.r.=.` &.z.                    ",
"                                      & & u.m.F.J.K.F.F.A.m.k.u.+.r.{ T K K P P / / I W ) N N m n N N M N >.                    ",
"                                        ; t.m.F.J.F.H.F.C.m.k.i.r.X.X._ P K Z A b b b b j y 3 y t y y y j N                     ",
"                                          y.m.F.J.H.H.F.S.C.x.g.i.X.+.` W Z z v h 0 5 5 1 < < < < < < < 1 i                     ",
"                                          r.B.F.J.J.F.D.C.C.m.z.u.r.*.` I H x k 0 5 5 5 5 < < > = = = = =                       ",
"                                          i.C.F.F.J.F.D.S.C.C.n.z.k.5.=./ P k g 4 5 , 4 , 1 < > < < * *                         ",
"                                          i.S.F.J.F.F.D.A.D.C.C.m.m.k.u.=.` b p 5 < < 3 < < < , < t                             ",
"                                          n.S.F.J.H.F.D.C.Z.A.C.C.B.m.x.k.&.P h 5 4 < , 3 >                                     ",
"                                          n.D.F.F.D.D.A.Z.D.S.Z.A.Z.C.B.n.u.{ K l 0 5 1 4                                       ",
"                                          m.D.H.H.D.D.C.C.S.S.S.D.S.S.C.m.k.t.) H b p u                                         ",
"                                        m.C.D.H.G.D.D.C.C.C.C.D.D.C.C.C.n.g.t.( K H g M                                         ",
"                                        C.D.Z.H.D.D.D.S.C.B.C.Z.C.C.B.M.x.g.u.` Y M n N                                         ",
"                                      F.C.F.Z.G.F.Z.Z.C.B.m.C.C.C.B.m.n.d.u.t.{ L n N ~                                         ",
"                                      C.D.F.D.D.D.D.D.C.C.B.m.C.B.B.m.z.t.X.' Y Z n N ~                                         ",
"                                    C.Z.F.G.Z.D.D.Z.D.S.C.m.m.m.m.m.n.g.5.` K z z M Q $.                                        ",
"                                    C.H.H.F.G.D.D.D.D.C.C.C.m.n.m.n.z.g.=./ L z z N ~ $.                                        ",
"                                  D.D.J.H.H.D.F.D.D.Z.Z.C.m.m.n.n.n.z.u.&./ L n M L ) `                                         ",
"                                Z.F.H.H.H.H.F.F.F.Z.Z.S.S.m.n.n.n.z.z.u.&.) Y L z M L $.                                        ",
"                                F.H.F.F.H.H.F.F.D.S.Z.S.S.m.n.z.y.i.i.u.=.) P N M M N =.                                        ",
"                                S.J.K.K.K.H.F.S.Z.C.S.C.m.n.n.g.g.i.u.{ ` ^ L N M M Y y.                                        "
};
