/* XPM */
static char *_4e9554f53fb4ba5dc41358da29273eaiWYjwUsXETatpfLO[] = {
/* columns rows colors chars-per-pixel */
"64 64 162 2 ",
"   c None",
".  c #060606",
"X  c #090706",
"o  c #090807",
"O  c #090708",
"+  c #0C0B0B",
"@  c #120E0D",
"#  c #14110F",
"$  c #1B110F",
"%  c #120F10",
"&  c #141212",
"*  c #1A1514",
"=  c #1D1916",
"-  c #1B1718",
";  c #1D1A1A",
":  c #221615",
">  c #231A16",
",  c #291B16",
"<  c #241C1A",
"1  c #2B1D1B",
"2  c #341D1C",
"3  c #24201B",
"4  c #2F201C",
"5  c #2B211D",
"6  c #30211C",
"7  c #30221E",
"8  c #32221E",
"9  c #32221F",
"0  c #30271E",
"q  c #33231F",
"w  c #3C221F",
"e  c #261F20",
"r  c #371F22",
"t  c #2C2620",
"y  c #2D2421",
"u  c #2F2821",
"i  c #292925",
"p  c #302322",
"a  c #362621",
"s  c #342522",
"d  c #3B2524",
"f  c #342B21",
"g  c #372D22",
"h  c #372825",
"j  c #352925",
"k  c #392823",
"l  c #3A2923",
"z  c #3B2B27",
"x  c #3C2A25",
"c  c #3B2F24",
"v  c #3F2C27",
"b  c #3B2B26",
"n  c #372D29",
"m  c #3B2D2A",
"M  c #3C332B",
"N  c #3D322C",
"B  c #332F35",
"V  c #432522",
"C  c #422C27",
"Z  c #402C28",
"A  c #422E29",
"S  c #412E2A",
"D  c #442F2B",
"F  c #422D2A",
"G  c #4D2E2C",
"H  c #43312B",
"J  c #40362A",
"K  c #46312C",
"L  c #44332D",
"P  c #48342E",
"I  c #4A342F",
"U  c #49342E",
"Y  c #443631",
"T  c #4A3530",
"R  c #4A3631",
"E  c #4D3731",
"W  c #4A3631",
"Q  c #413830",
"!  c #443B33",
"~  c #433B35",
"^  c #453933",
"/  c #4D3933",
"(  c #4E3933",
")  c #4C3A34",
"_  c #45393B",
"`  c #4F3C39",
"'  c #533433",
"]  c #513B35",
"[  c #533B36",
"{  c #533C37",
"}  c #563C37",
"|  c #513B36",
" . c #5A3F37",
".. c #553F39",
"X. c #533E3A",
"o. c #583E39",
"O. c #583F3A",
"+. c #5B3D3C",
"@. c #613E3C",
"#. c #4E4031",
"$. c #4E4138",
"%. c #5A4037",
"&. c #54403A",
"*. c #57403A",
"=. c #55423C",
"-. c #59403B",
";. c #5E4238",
":. c #5C413A",
">. c #59423D",
",. c #5D423C",
"<. c #5E433D",
"1. c #5C453F",
"2. c #5E453F",
"3. c #5D473F",
"4. c #5F473F",
"5. c #5A433D",
"6. c #60433A",
"7. c #60443D",
"8. c #61473D",
"9. c #62463D",
"0. c #61453E",
"q. c #61473E",
"w. c #61453E",
"e. c #62483F",
"r. c #544441",
"t. c #5B4641",
"y. c #534C42",
"u. c #5D4944",
"i. c #5F4B48",
"p. c #634543",
"a. c #6A4442",
"s. c #624940",
"d. c #634A44",
"f. c #694B45",
"g. c #634D49",
"h. c #6B4E4A",
"j. c #734D4C",
"k. c #625045",
"l. c #6B5047",
"z. c #65514B",
"x. c #6B524D",
"c. c #73544D",
"v. c #78544E",
"b. c #76584F",
"n. c #6D5651",
"m. c #6E5954",
"M. c #735552",
"N. c #7A5552",
"B. c #735A55",
"V. c #7A5B55",
"C. c #765E59",
"Z. c #7A5D5A",
"A. c #7A6257",
"S. c #76615C",
"D. c #7C615D",
"F. c #7E6561",
"G. c #81645E",
"H. c #836662",
"J. c #856964",
"K. c #876B68",
"L. c #94756C",
"P. c #967E72",
/* pixels */
"                                                                                                                                ",
"                                                                                                                                ",
"                                    * * * = 3 * = - * 3                                                                         ",
"                            3 3 3 = $ & * * ; * # & & - ; 3 3                                                                   ",
"                          * # * & & * & * & * * + & & ; ; ; ; ; ; e i                                                           ",
"                  0 = > $ # # & @ & % & @ @ @ * % & - - - ; - ; ; ; ; ; ; t                                                     ",
"              Q u 5 * # @ + + % @ + O + o o + @ & # - = ; ; & - ; & - & ; ; *                                                   ",
"            ~ M 5 * # @ + @ + + X + O + + + @ @ & # & = ; - & & & & & & & & & & ;                                               ",
"            #.f > # + + @ @ + o X + @ * : : * $ $ & & $ - % % % % % + % & & & & & &                                             ",
"            M 0 = & @ + o o @ @ * > 8 x A A l q 1 : $ % @ % O % + % + + % % & % + & & &                                         ",
"          #.g , * + + o @ # $ , q C E [ ..O.[ I Z d 1 $ % % % % % + % % % + + & + & & & +                                       ",
"        3 c 5 $ + o + # $ , q w D E &.4.0.0.t.O.| T z 1 - % % % % + + + + + + + + + + + & + ;                                   ",
"        3 , # o X X @ : 6 l C U / &.4.4.8.0.0.:.+.{ F y - % % % & + + + + + + + + + + + + + & ;                                 ",
"      3 3 $ # o X X $ 6 C K U ] } 4.3.e.e.:.;.6.0.5.) k e & $ % & + % + % + + + + + + + & + + &                                 ",
"      3 $ # @ o X @ 6 x U E ] } %.4.e.e.e.e.0.f.f.g.t.W r & $ - & & & & % + + + + + + + + + + &                                 ",
"      < $ @ @ @ o , 0 K E ] %.;.9.e.e.e.d.e.f.f.h.h.n.g.' - - $ & & & & % + + + + + + + + + + + &                               ",
"        & @ @ o # q C U ( ;.0.s.s.t...W L | p.h.j.j.M.n.i.B - - & & & % % + + O . . . . . . . + + ;                             ",
"        * @ @ o > k L / [ ;.5.) m y < > > e n L _ p.j.M.N.a.F - - & & % % + + + O . . . . . O + + &                             ",
"          < @ @ 1 H / ] &.] c > * % * y N _ ` =.r.i.i.n.N.M.i.r % & % % + + % + + O . . . . + + + #                             ",
"              @ c E &.] E f : * > 5 m / ` =.r.t.i.i.h.M.M.N.M._ & % & % % + + + o O . . . . . + + +                             ",
"              < Y / / U F 1 : 1 d h r 1 , e r F +.p.i.C.Z.Z.Z.M.m % - % + + + . o + . . . . . + + +                             ",
"                < 5 l v K z r r p : O O % B e : r _ i.Z.F.F.Z.N.j.m - & & % + + + O + O + O . + + %                             ",
"                @ * < H d.t.` F 2 * & % e _ I ` p.i.M.Z.F.F.G.N.B.=.- % & & % + + o O + . . . . . +                             ",
"              * * 5 k l.N.h.i.=.A 1 1 d Y >.h.M.M.C.Z.F.H.K.H.G.Z.g.y % & & & * * @ < * + . + . + . &                           ",
"              n n J A.V.N.N.h.+.X.F z W r.h.n.Z.D.H.H.H.K.H.H.H.G.j.h - % & e r a Z ' d , + O . o o +                           ",
"              n 5 m.G.N.N.N.N.h.d.O.` O.d.h.C.Z.H.J.K.J.K.K.H.Z.Z.M.d - % e Y ` 5.+.p.+.V : O . . o +                           ",
"              5 ;.L.G.v.N.G.Z.M.c.h.s.t.g.n.B.Z.H.J.K.J.K.H.Z.Z.Z.M.h - ; ` h.g.c.p.a.G.+.V + . . o #                           ",
"              ) L.G.G.v.N.N.Z.N.v.c.c.h.h.j.B.Z.H.J.J.J.H.H.Z.N.N.M.m e h x.Z.B.f.G @.j.a.@.$ . . o &                           ",
"              x.G.v.M.N.N.N.N.M.c.b.v.b.b.N.Z.Z.D.H.J.J.H.Z.N.Z.Z.Z.i.h Y B.F.F.j.d 2 V a.a.; + o . -                           ",
"              u.:.d.+.' +.j.N.j.l.b.b.V.V.C.Z.D.D.H.H.J.H.G.G.Z.Z.Z.M.r.X.Z.H.H.V.+.' V a.x.; . . + &                           ",
"              ) A E d , : G a.p.l.c.b.N.V.D.D.G.H.H.J.H.H.H.G.Z.Z.Z.M.n.g.Z.F.Z.p.j.j.+.c.N.& o o O -                           ",
"              ^ 2 a d d d G @.a.c.c.b.V.A.D.G.H.H.J.H.J.H.J.H.G.H.Z.M.n.n.Z.Z.M.p.j.D.M.N.g.+ o + + ;                           ",
"                F r z W =.d.g.n.c.b.v.G.G.G.G.J.J.J.J.H.J.J.J.G.H.N.M.n.n.Z.M.j.M.M.G.Z.j.r O O + %                             ",
"                >.m m { r.t.g.x.n.b.A.G.G.G.G.J.H.H.J.J.J.J.J.G.H.Z.n.x.n.C.C.M.B.V.G.p.n + O O +                               ",
"                  W Y ` r.d.g.z.k.m.A.G.G.G.H.J.J.G.J.J.J.J.J.J.H.G.M.n.n.C.g.t.+.p.+.e + + O O +                               ",
"                  W V F F D ` t.=.z.A.G.G.G.G.H.H.J.J.K.J.J.J.H.G.Z.M.M.M.M.p.F G X.X.% + + + O +                               ",
"                  a 1 1 r r r d s ` x.S.G.H.H.H.H.H.K.J.H.J.H.G.H.Z.M.C.M.M.x.=.+.g.g.: + + + O +                               ",
"                  1 2 r ' } +.{ $.] d.B.G.G.H.H.H.H.H.H.H.H.G.G.D.Z.C.M.M.C.Z.M.C.C.n.y % + + +                                 ",
"                  r F V D O.g.m.z.d.k.x.N.Z.G.G.G.G.H.G.G.G.D.C.C.V.M.m.M.V.Z.D.D.S.n.< + + + &                                 ",
"                  F r e y ^ >.k.l.z.d.x.j.v.G.G.G.G.G.G.D.C.V.V.V.B.M.n.m.B.Z.F.F.S.g.; & + +                                   ",
"                    f s n U &.u.d.k.l.n.m.C.C.V.V.A.A.Z.Z.V.B.M.M.n.n.m.m.A.A.H.F.S.z.> % + +                                   ",
"                    m H ) >.u.k.z.l.x.B.A.B.B.B.B.v.V.B.M.c.x.h.g.h.z.n.m.A.D.D.F.S.k.> & % -                                   ",
"                    ! &.u.z.m.m.m.m.B.B.B.B.v.c.c.c.x.x.h.g.u.t.u.u.i.z.S.D.J.F.F.C.i.< & &                                     ",
"                    k.u.5.k.z.z.m.n.z.z.l.x.l.f.f.d.0.1.1.>.=...&.t.d.n.A.D.F.F.F.C.i.> %                                       ",
"                    z.X.` r.r.r.r.r.r.t.1.1.>.&.-.&.| / / ] &.$.=.d.z.S.D.G.K.K.F.m.u.- +                                       ",
"                    y.L m N N n m N N ) ^ U / / P K K P W $.&.=.r.z.B.S.D.J.F.K.F.m.u.- *                                       ",
"                    N n y y y y y e y h h c l v v A H U / &.&.1.d.z.m.S.F.J.J.F.F.m.y.;                                         ",
"                    y < < < < > > ; < 5 5 4 7 k v v A W ) =.>.t.z.z.m.D.G.J.F.K.F.m.y.                                          ",
"                      = * = > : > < < 5 5 5 5 7 l v K U ` &.5.u.x.m.V.Z.S.F.J.J.F.m.r.                                          ",
"                        * = < > > 1 5 > 5 > 5 5 q c L / &.>.k.z.n.B.S.S.D.H.F.H.F.C.i.                                          ",
"                            t ; > < < < 3 < 5 5 s c ) >.u.z.m.B.B.S.Z.S.F.H.F.J.F.S.i.                                          ",
"                                    > 3 , , 5 7 f P =.k.x.m.m.C.S.A.S.S.S.F.H.H.F.D.n.                                          ",
"                                      5 < 5 p l K ..u.n.B.C.Z.S.V.S.S.S.D.D.G.G.F.D.m.                                          ",
"                                        f s x M ) t.z.n.C.C.Z.D.D.S.S.C.C.D.G.H.F.D.B.                                          ",
"                                        M j H K ) t.z.n.B.C.Z.S.S.C.S.V.C.Z.D.D.G.D.C.m.                                        ",
"                                        M n m P X.t.g.x.m.C.C.C.S.V.C.C.C.D.D.F.D.D.S.S.                                        ",
"                                        ! M m K | r.p.g.n.M.m.C.C.B.m.M.C.D.Z.D.G.Z.H.C.S.                                      ",
"                                        $.M n A U | =.t.x.n.m.C.B.B.m.B.S.D.D.D.D.Z.H.D.C.                                      ",
"                                        $.Q n n C K | r.i.n.m.m.B.B.B.C.S.Z.D.D.G.D.D.G.S.C.                                    ",
"                                        &.) M n c L Y r.i.x.n.m.m.m.C.S.C.D.D.D.D.D.H.H.H.C.                                    ",
"                                        ` ^ Y m m L E &.i.z.x.m.n.m.C.C.Z.S.S.D.F.F.H.H.J.Z.Z.                                  ",
"                                        $.L N N L Y ) &.i.x.x.z.n.n.m.S.D.C.D.D.S.F.H.H.H.H.F.Z.                                ",
"                                        =.M M N L Y ) =.r.i.i.i.i.n.m.C.S.D.D.D.F.F.H.H.J.H.H.F.                                ",
"                                        y.Q n m N N Y ` ` i.i.i.i.n.m.m.C.S.C.C.F.F.H.H.K.K.H.F.                                "
};
