/* XPM */
static char *_da25b9768904f3df2fbfcb0f2f82630BNIhMCH37b7j6HRS[] = {
/* columns rows colors chars-per-pixel */
"64 64 65 1 ",
"  c #363535",
". c #373535",
"X c #383737",
"o c #3B3939",
"O c #3B3A3A",
"+ c #3D3B3B",
"@ c #3D3B3C",
"# c #3E3C3C",
"$ c #3F3F3F",
"% c #403D3D",
"& c #403E3E",
"* c #424040",
"= c #434242",
"- c #444141",
"; c #444343",
": c #454444",
"> c #464444",
", c #474545",
"< c #494747",
"1 c #4B4A4A",
"2 c #4C4B4B",
"3 c #4D4C4C",
"4 c #504F4F",
"5 c #525050",
"6 c #545353",
"7 c #535454",
"8 c gray33",
"9 c #555555",
"0 c gray34",
"q c #585757",
"w c #585858",
"e c #5B5B5B",
"r c #5C5B5B",
"t c gray36",
"y c #5D5E5E",
"u c gray37",
"i c #5F5E5E",
"p c #5F5F5F",
"a c gray39",
"s c #646363",
"d c #646464",
"f c #656565",
"g c #676767",
"h c #686666",
"j c #6A6A6A",
"k c gray42",
"l c #747373",
"z c gray46",
"x c gray47",
"c c #797979",
"v c gray50",
"b c #807F7F",
"n c #808181",
"m c #818181",
"M c #838383",
"N c #878686",
"B c #868787",
"V c #878888",
"C c #888888",
"Z c #898888",
"A c #8B8B8B",
"S c gray55",
"D c gray56",
"F c #909090",
"G c gray57",
/* pixels */
"#@@@#@@@@@@@@@@@#@@##@@@@@@@@@@@@@@@@@@@@@@@@@+@@++@@@@@@@@@@@#X",
"#&&###@+###&&##&&#####&@#&&##&&##&#&&##@++&@#&+&&&&@&##&&#&##&#o",
"<<<<<-++,<<<<<<<<<<11<<<<<<<<<<1<<<<<<<++&<1<<<<<<<<<<<<<<<<<<<=",
"NVCCCa+ozCCCCCCCCVVCVCCCCCCCCCCCCCCCCCc&&eNCCCCCCCCCCCCCCCCCCVVc",
"CSSSSf+XcSCSCSSCACSSAAAACSCSSSSCSSSCCSm&#eCSSSCSSSAAAAAAAASCCSAb",
"SSSSGhoocSGCSGGSAASGAFAAGSSSSSSSSSSSSSm&+eGSSSGNSSSSDSSSAGSADSSv",
"aaaas4+oeaaaaafaaaaadddasaaafaaafaaaaau+#1aaaaaasssaaaaafaaaaaae",
"uuueu3++6uuueeuueyeyyuuuuueuuueuuuueeee++,euuuuuuueuuueuuueueue6",
"uuuus3++9uuuuuuuuuuuuuuuuuuuuuuuuuuuuu9++<uuuuuuuuuuuuuuuuuuuuy9",
"uuuuu1+o9uuuuuuuuuuuuuuuuuuuuuuuuuuuurr+#1uuuuuuuuuuuuuuuuuuuuu9",
"uuuuu3++9uuuuuuuuuuuuuuuuuuuuuuuuuuuuuq&+1uuuuuuuuuuuuuuuuuuuue9",
"uuuua3+o9uuuuuuuuuuuuuuuuuuuuuuuuuuuuuq&+<uuuuuuuuuuuuuuuuuuuuu9",
"uuuus1#+9uuuuuuuuuuuuuuuuuuuuuuuuuuuuu9@#1uuuuuuuuuuuuuuuuuuuue9",
"uuuuu3++9uuuuuuuuuuuuuuuuuuuuuuuuuuuuue&+<uuuuuuuuuuuuuuuuuuuuu9",
"uuuuu1++9uuuuuuuuuuuuuuuuuuuuuuuuuuuuue##1uuuuuuuuuuuuuuuuuuuuu9",
"9e99r1++4q9e99e99ww9ww9ww9ww9www99e9994##<9e99e900000000000009e1",
"oo+ooo##+oooo@ooOOooOoOOooooOOooooooo+o###ooo++%oooOoooOOO+oo#o ",
"####$###++$#$$###$##$$####$#$$$#$#$#$#####$###++#$#$$#$###@$$#$o",
",,-,,,,,,,-,,,,=,,,=,,###,,,,,:=,,=,,,,,,,=,,,&<;,,,,;;=##=,,=,$",
"NNNNNVNVNNNNNNVBVBNVVB1#-bBNBCNNNVVNNNNVNNNVNVCCNNNVNNNfo#kVNVVx",
"CSAAVAAACSSSSSSSCSSAVA1#,NCAAASSAAAAVASSVSAASCSSAAAAAAAfo#lAVAVv",
"SGSASFFFGSDDSSGSGGSADD3#,CDDDDDSFSFFGAGSFSFFGSGSDDDDDDGgo#zDSGAm",
"gfddddddffffffsfffdfad,+=aasffffddddddddddfffffffafdddd6o#eafafu",
"upyypyuueuueuaurppeuuu=##euuuuruuyyuyuuuuuuuuruuuuuuuuu3o#4uuuy6",
"uuuuuuuuuuuuuuuuuuuuuu-#&euuuuuuuuuuuuuuuuuuuuuuuuuuuuu4o#6uuuu6",
"uuuuuuuuuuuuuuuuuuuuuu=+=euuuuuuuuuuuuuuuuuuuuuuuuuuuuu4o#6uuuu7",
"uuuuuuuuuuuuuuuuuuuuuu-+#uuuuuuuuuuuuuuuuuuuuuuuuuuuuuu3o@6uuuu7",
"uuuuuuuuuuuuuuuuuuuuuu-+=eeuuuuuuuuuuuuuuuuuuuuuuuuuuuu4@#6uuuu7",
"uuuuuuuuuuuuuuuuuuuuuu=+#uuuuuuuuuuuuuuuuuuuuuuuuuuuuuu3o+7uuuu7",
"uuuuuuuuuuuuuuuuuuuuuu-&#eeuuuuuuuuuuuuuuuuuuuuuuuuuuuu3++6uuuu9",
"uyuuuuuuuuuuuuuuuuuuuu&+=uuuuuuuuuuuuuuuuuuuuuuuuuuuuuu3o+7uuuu7",
"ye9y9eqeqeqeqrqry9e0ee=+#ewee0e09u9ee7eyqrqrqrqeqeqeeer3+#1eey96",
"ooooooooooo+ooooooooo###++ooo+oo#X#oo+oo#oo#ooooo+oo+oo###ooo+o ",
"###o#&##+&+####+##############++&&#####+#######################o",
"====-,==--=++#===,===============-----=+#&--=======-===========#",
"mmVmnNmNmVm=+<NNnNNmnNmNNmNmNmNNmmVmCmz#&9mCNmmNVmmVmNmNNmmNmVmz",
"VCCSNVSCVCS,+1CCVCSCACSCVCSCCSCCSCCSCCm+&qSCSCCCVVNVSCNVCCACVSCm",
"GGGGGGGGGSG=+1SGSGGGAGGGGSGGGSGGGGGSSGm&#rGSGGGGSGGGGGGGGGGSGSSn",
"jdgjjfjfjff#+-jfjdjgfjjfjdjjfjjhjffjjfa#+1jfjfjfkfjfjfjfkjdjgfju",
"eeuyeeuuuuu&+&ueeyyueueueueuueereuueeuq#+<ueuurruueuyueuyyyuueu7",
"uuuuuuuuuur&+-uuuuuuuuuuuuuuuuuuuuuuur9&+<uuuuuuuuuuuuuuuuuuuuu4",
"uuuuuuuuuuu&#&uruuuuuuuuuuuuuuuuuuuuuue++1uuuuuuuuuuuuuuuuuuuuu9",
"uuuuuuuuuuu&+=uuuuuuuuuuuuuuuuuuuuuuuuq&+1uuuuuuuuuuuuuuuuuuuuu9",
"uuuuuuuuuuu&+=uuuuuuuuuuuuuuuuuuuuuuuuq++<uuuuuuuuuuuuuuuuuuuuu9",
"uuuuuuuuuuu&+&uuuuuuuuuuuuuuuuuuuuuuuue++1uuuuuuuuuuuuuuuuuuuuu7",
"uuuuuuuuuue&+=uuuuuuuuuuuuuuuuuuuuuuuuq&+<uuuuuuuuuuuuuuuuuuuuu9",
"uuuuuuuuuuu&+=uuuuuuuuuuuuuuuuuuuuuuuu9##1uuuuuuuuuuuuuuuuuuuyu6",
"eerrrreeeeu##&errrrrrreerrrrreeyrrrree9##<ueeeeerrrrrrrrreeeeee6",
"+++o+++++X++++++++++o+++o++++++#X++++++&++++##o#+++++++++X+++++ ",
"+#&#&&+&&&&&&++&&&+&&+&&#+++##+#+&+&+&++&++&+#+&++&+&&+&&&&&+++X",
"&&&&&&&&&&&&&&&&&&&-&&&&&&+&&-&-&&&=&&&=&&&=#&&=&&&-&&&&&&&&&++X",
"mbbmbmmmbbbbmbbmbbmmbbbbc&#3bbbmbmbbbbbmbbbbbmmmbbbvbmmmbbbbm-&X",
"CCCCSCCSSCCSSSSSCSCCCVANm-#6CCSCSSSCCSCCCCSCVSCCCCNAACCSSCCSC<+ ",
"SGGSGGSGGGGDSDDSSGGGGFGGC=+4GDSGDDDDGDGGGGGGGAGGGGGSGGSFGGGAG-%X",
"kjjjkjkjjkkkkkkkjjjjkkjkf&+1jjjjkkkkjkjjkkjjjjjjkjjjkjkjjkjjj-+ ",
"auuuuuuuuuruuruieuuuuarur+#<uuuuruuuuruuuuuuuuuuauuuuuuuuuuuu+++",
"uuuuuuuuuuuuuuuuuuuuuuuuu#+,uuuuuuuuuuuuuuuuuuuuuuuuuuuuuuuuu&#o",
"uuuuuuuuuuuuuuuuuuuuuuurr#+,euuuuuuuuuuuuuuuuuuuuuuuuuuuuuuye## ",
"uuuuuuuuuuuuuuuuuuuuuuuue++<uuuuuuuuuuuuuuuuuuuuuuuuuuuuuuuuu##o",
"uuuuuuuuuuuuuuuuuuuuuuuue#+-uuuuuuuuuuuuuuuuuuuuuuuuuuuuuuuuu=# ",
"uuuuuuuuuuuuuuuuuuuuuuure&+,uuuuuuuuuuuuuuuuuuuuuuuuuuuuuuueu##+",
"uuuuuuuuuuuuuuuuuuuuuuuue++,euuuuuuuuuuuuuuuuuuuuuuuuuuuuuuuu## ",
"uuuuuuuuuuuuuuuuuuuuuuuue##,uuuuuuuuuuuuuuuuuuuuuuuuuuuuuuuuu=#o",
"ueeueeueeuerurrreurrureee##-eueeurrurrureueeueeueeueeueeueeee## "
};
